<svg width="56" height="56" viewBox="0 0 56 56" fill="none" xmlns="http://www.w3.org/2000/svg">
  <circle cx="28" cy="28" r="28" fill="#B5374D"/>
  <path d="M21.5187 39.3333C21.3298 39.3333 21.1528 39.2861 20.9875 39.1917C20.8222 39.0972 20.6923 38.9674 20.5979 38.8021L17.6229 33.4896H20.1375L21.625 36.3229H24.8125V35.2604H22.2625L20.775 32.4271H17.0562L14.825 28.5312C14.7778 28.4368 14.7423 28.3483 14.7187 28.2656C14.6951 28.183 14.6833 28.0944 14.6833 28C14.6833 27.9528 14.7305 27.7757 14.825 27.4687L17.0562 23.5729H20.775L22.2625 20.7396H24.8125V19.6771H21.625L20.1375 22.5104H17.6229L20.5979 17.1979C20.6923 17.0326 20.8222 16.9028 20.9875 16.8083C21.1528 16.7139 21.3298 16.6667 21.5187 16.6667H25.6979C26.0048 16.6667 26.2587 16.767 26.4594 16.9677C26.6601 17.1684 26.7604 17.4222 26.7604 17.7292V23.9271H23.75L22.6875 24.9896H26.7604V29.5937H23.2896L21.9083 26.7604H18.4375L17.375 27.8229H21.2L22.6167 30.6562H26.7604V38.2708C26.7604 38.5778 26.6601 38.8316 26.4594 39.0323C26.2587 39.233 26.0048 39.3333 25.6979 39.3333H21.5187ZM31.1875 39.3333C30.5028 39.3333 29.9184 39.0913 29.4344 38.6073C28.9503 38.1233 28.7083 37.5389 28.7083 36.8542C28.7083 36.3583 28.8382 35.9097 29.0979 35.5083C29.3576 35.1069 29.7 34.8118 30.125 34.6229V21.3771C29.7 21.1882 29.3576 20.893 29.0979 20.4917C28.8382 20.0903 28.7083 19.6417 28.7083 19.1458C28.7083 18.4611 28.9503 17.8767 29.4344 17.3927C29.9184 16.9087 30.5028 16.6667 31.1875 16.6667C31.8722 16.6667 32.4566 16.9087 32.9406 17.3927C33.4246 17.8767 33.6667 18.4611 33.6667 19.1458C33.6667 19.6417 33.5368 20.0903 33.2771 20.4917C33.0173 20.893 32.675 21.1882 32.25 21.3771V25.4146L35.7917 23.2896C35.7208 22.5576 35.9333 21.9201 36.4292 21.3771C36.925 20.834 37.5389 20.5625 38.2708 20.5625C38.9555 20.5625 39.5399 20.8045 40.0239 21.2885C40.508 21.7726 40.75 22.3569 40.75 23.0417C40.75 23.7264 40.508 24.3108 40.0239 24.7948C39.5399 25.2788 38.9555 25.5208 38.2708 25.5208C38.0111 25.5208 37.7632 25.4854 37.5271 25.4146C37.291 25.3437 37.0785 25.2493 36.8896 25.1312L33.0646 27.4333L37.1729 30.7271C37.3382 30.6562 37.5153 30.5972 37.7042 30.55C37.893 30.5028 38.0819 30.4792 38.2708 30.4792C38.9555 30.4792 39.5399 30.7212 40.0239 31.2052C40.508 31.6892 40.75 32.2736 40.75 32.9583C40.75 33.643 40.508 34.2274 40.0239 34.7114C39.5399 35.1955 38.9555 35.4375 38.2708 35.4375C37.4444 35.4375 36.7892 35.1187 36.3052 34.4812C35.8212 33.8437 35.6736 33.1472 35.8625 32.3917L32.25 29.4875V34.6583C32.6514 34.8472 32.9819 35.1364 33.2417 35.526C33.5014 35.9156 33.6312 36.3583 33.6312 36.8542C33.6312 37.5389 33.3951 38.1233 32.9229 38.6073C32.4507 39.0913 31.8722 39.3333 31.1875 39.3333Z" fill="white"/>
  </svg>
  