<svg width="14" height="14" viewBox="0 0 14 12" fill="none" xmlns="http://www.w3.org/2000/svg">
<path d="M3.50001 1.16675H8.16668L11.6667 4.66675V11.6667C11.6667 11.9762 11.5438 12.2729 11.325 12.4917C11.1062 12.7105 10.8094 12.8334 10.5 12.8334H3.50001C3.19059 12.8334 2.89384 12.7105 2.67505 12.4917C2.45626 12.2729 2.33334 11.9762 2.33334 11.6667V2.33341C2.33334 2.024 2.45626 1.72725 2.67505 1.50846C2.89384 1.28966 3.19059 1.16675 3.50001 1.16675ZM7.58334 2.04175V5.25008H10.7917L7.58334 2.04175ZM9.91668 6.41675H7.58334V7.58342H8.16668L7.00001 8.55758L5.83334 7.58342H6.41668V6.41675H4.08334V7.58342H4.66668L6.41668 9.04175L4.66668 10.5001H4.08334V11.6667H6.41668V10.5001H5.83334L7.00001 9.52592L8.16668 10.5001H7.58334V11.6667H9.91668V10.5001H9.33334L7.58334 9.04175L9.33334 7.58342H9.91668V6.41675Z" fill="#8BC34A"/>
</svg>
