<svg width="20" height="20" viewBox="0 0 20 20" fill="none">
<path d="M3.71125 5.13658H14.9198C15.312 5.13658 15.631 4.81752 15.631 4.42535V2.71125C15.631 2.31907 15.312 2 14.9198 2H3.71125C3.31907 2 3 2.31907 3 2.71125V4.42534C3 4.81752 3.31907 5.13658 3.71125 5.13658ZM3.46924 2.71125C3.46924 2.57781 3.57781 2.46924 3.71125 2.46924H14.9198C15.0533 2.46924 15.1618 2.57781 15.1618 2.71125V4.42534C15.1618 4.55878 15.0533 4.66734 14.9198 4.66734H3.71125C3.57781 4.66734 3.46924 4.55878 3.46924 4.42534V2.71125Z" fill="var(--black)"/>
<path d="M5.2854 3.80292H10.7189C10.8485 3.80292 10.9535 3.69787 10.9535 3.5683C10.9535 3.43872 10.8485 3.33368 10.7189 3.33368H5.2854C5.15582 3.33368 5.05078 3.43872 5.05078 3.5683C5.05078 3.69787 5.15582 3.80292 5.2854 3.80292Z" fill="var(--black)"/>
<path d="M13.1275 3.65811C13.1331 3.6722 13.1407 3.68596 13.1491 3.69847C13.1576 3.7113 13.1672 3.7235 13.1782 3.73413C13.1891 3.74508 13.201 3.75478 13.2139 3.76323C13.2267 3.77168 13.2401 3.77918 13.2542 3.78481C13.2686 3.79075 13.2833 3.79544 13.2983 3.79825C13.3133 3.80139 13.3287 3.80296 13.344 3.80296C13.3593 3.80296 13.375 3.80139 13.39 3.79825C13.405 3.79545 13.4197 3.79076 13.4338 3.78481C13.4479 3.77918 13.4616 3.77168 13.4744 3.76323C13.4873 3.75478 13.4992 3.74508 13.5101 3.73413C13.5208 3.7235 13.5307 3.7113 13.5392 3.69847C13.5476 3.68596 13.5548 3.6722 13.5608 3.65811C13.5667 3.64372 13.5711 3.62903 13.5742 3.61401C13.5771 3.599 13.5786 3.58366 13.5786 3.56834C13.5786 3.55301 13.5771 3.53767 13.5742 3.52235C13.5711 3.50733 13.5667 3.49262 13.5608 3.47856C13.5548 3.46447 13.5476 3.45071 13.5392 3.4382C13.5307 3.42507 13.5208 3.41317 13.5101 3.40254C13.4992 3.39158 13.4873 3.38188 13.4744 3.37313C13.4616 3.36469 13.4479 3.35749 13.4338 3.35155C13.4197 3.34591 13.405 3.34123 13.39 3.33842C13.3596 3.33215 13.3284 3.33215 13.2983 3.33842C13.2833 3.34123 13.2686 3.34591 13.2542 3.35155C13.2401 3.35749 13.2267 3.36469 13.2139 3.37313C13.201 3.38189 13.1891 3.39158 13.1782 3.40254C13.1344 3.44602 13.1094 3.50671 13.1094 3.56834C13.1094 3.58366 13.1109 3.599 13.1141 3.61402C13.1172 3.62903 13.1216 3.64372 13.1275 3.65811Z" fill="var(--black)"/>
<path d="M10.3675 8.61423H3.71125C3.57781 8.61423 3.46924 8.50567 3.46924 8.37224V6.65814C3.46924 6.5247 3.57781 6.41613 3.71125 6.41613H14.9198C15.0533 6.41613 15.1618 6.5247 15.1618 6.65814V7.67947C15.1618 7.80904 15.2668 7.91409 15.3964 7.91409C15.526 7.91409 15.631 7.80904 15.631 7.67947V6.65814C15.631 6.26596 15.312 5.94689 14.9198 5.94689H3.71125C3.31907 5.94689 3 6.26596 3 6.65814V8.37224C3 8.76441 3.31907 9.08347 3.71125 9.08347H10.3675C10.4971 9.08347 10.6021 8.97843 10.6021 8.84885C10.6021 8.71928 10.4971 8.61423 10.3675 8.61423Z" fill="var(--black)"/>
<path d="M10.9535 7.51518C10.9535 7.38561 10.8485 7.28057 10.7189 7.28057H5.2854C5.15582 7.28057 5.05078 7.38561 5.05078 7.51518C5.05078 7.64476 5.15582 7.7498 5.2854 7.7498H10.7189C10.8485 7.7498 10.9535 7.64476 10.9535 7.51518Z" fill="var(--black)"/>
<path d="M13.5392 7.38481C13.5307 7.37198 13.5208 7.3601 13.5101 7.34915C13.4992 7.3385 13.4873 7.32882 13.4744 7.32005C13.4616 7.3116 13.4479 7.30441 13.4338 7.29847C13.4197 7.29283 13.405 7.28814 13.39 7.28533C13.3596 7.27907 13.3284 7.27907 13.2983 7.28533C13.2833 7.28814 13.2686 7.29283 13.2542 7.29847C13.2401 7.30441 13.2267 7.3116 13.2139 7.32005C13.201 7.32882 13.1891 7.3385 13.1782 7.34915C13.1344 7.39294 13.1094 7.45332 13.1094 7.51526C13.1094 7.57688 13.1344 7.63726 13.1782 7.68105C13.1891 7.69201 13.201 7.70171 13.2139 7.71015C13.2267 7.7186 13.2401 7.7261 13.2542 7.73174C13.2686 7.73768 13.2833 7.74206 13.2983 7.74518C13.3133 7.74831 13.3287 7.74988 13.344 7.74988C13.3593 7.74988 13.375 7.74831 13.39 7.74518C13.405 7.74206 13.4197 7.73768 13.4338 7.73174C13.4479 7.7261 13.4616 7.7186 13.4744 7.71015C13.4873 7.70171 13.4992 7.69201 13.5101 7.68105C13.5208 7.67042 13.5307 7.65822 13.5392 7.64539C13.5476 7.63257 13.5548 7.61912 13.5608 7.60503C13.5667 7.59064 13.5711 7.57595 13.5742 7.56094C13.5771 7.54592 13.5786 7.53059 13.5786 7.51526C13.5786 7.49993 13.5771 7.48461 13.5742 7.46927C13.5711 7.45426 13.5667 7.43956 13.5608 7.42548C13.5548 7.41139 13.5476 7.39763 13.5392 7.38481Z" fill="var(--black)"/>
<path d="M10.3675 12.6213H3.71125C3.57781 12.6213 3.46924 12.5128 3.46924 12.3793V10.6652C3.46924 10.5318 3.57781 10.4232 3.71125 10.4232H10.3253C10.4548 10.4232 10.5599 10.3182 10.5599 10.1886C10.5599 10.059 10.4548 9.95401 10.3253 9.95401H3.71125C3.31907 9.95401 3 10.2731 3 10.6652V12.3793C3 12.7715 3.31907 13.0906 3.71125 13.0906H10.3675C10.4971 13.0906 10.6021 12.9855 10.6021 12.856C10.6021 12.7264 10.4971 12.6213 10.3675 12.6213Z" fill="var(--black)"/>
<path d="M5.2854 11.2877C5.15582 11.2877 5.05078 11.3927 5.05078 11.5223C5.05078 11.6519 5.15582 11.7569 5.2854 11.7569H8.92939C9.05897 11.7569 9.16401 11.6519 9.16401 11.5223C9.16401 11.3927 9.05897 11.2877 8.92939 11.2877H5.2854Z" fill="var(--black)"/>
<path d="M11.903 3.76323C11.9158 3.77168 11.9293 3.77918 11.9437 3.78481C11.9577 3.79075 11.9724 3.79514 11.9875 3.79826C12.0025 3.80139 12.0181 3.80296 12.0335 3.80296C12.0951 3.80296 12.1555 3.77792 12.1992 3.73413C12.2431 3.69065 12.2681 3.62996 12.2681 3.56834C12.2681 3.55301 12.2665 3.53767 12.2634 3.52235C12.2602 3.50764 12.2559 3.49262 12.2499 3.47856C12.2443 3.46447 12.2368 3.45071 12.2284 3.4382C12.2199 3.42507 12.2102 3.41317 12.1992 3.40254C12.1448 3.34779 12.0635 3.32277 11.9875 3.33841C11.9724 3.34122 11.9577 3.34591 11.9437 3.35155C11.9293 3.35749 11.9158 3.36468 11.903 3.37313C11.8902 3.38188 11.8783 3.39158 11.8674 3.40253C11.8567 3.41316 11.8467 3.42506 11.8382 3.4382C11.8298 3.45071 11.8226 3.46447 11.8167 3.47855C11.8107 3.49262 11.8063 3.50764 11.8032 3.52235C11.8004 3.53767 11.7988 3.553 11.7988 3.56834C11.7988 3.62995 11.8238 3.69064 11.8673 3.73413C11.8783 3.74508 11.8902 3.75478 11.903 3.76323Z" fill="var(--black)"/>
<path d="M12.2284 7.38482C12.2199 7.37198 12.2102 7.3601 12.1992 7.34915C12.1448 7.29471 12.0635 7.26969 11.9875 7.28533C11.9724 7.28814 11.9577 7.29283 11.9437 7.29847C11.9293 7.30441 11.9158 7.31161 11.903 7.32005C11.8902 7.3285 11.8783 7.3385 11.8674 7.34915C11.8567 7.3601 11.8467 7.37199 11.8382 7.38482C11.8298 7.39763 11.8226 7.41139 11.8167 7.42548C11.8107 7.43956 11.8063 7.45425 11.8032 7.46927C11.8004 7.4846 11.7988 7.49993 11.7988 7.51526C11.7988 7.57688 11.8238 7.63726 11.8673 7.68105C11.8783 7.692 11.8902 7.70171 11.903 7.71015C11.9158 7.7186 11.9293 7.7261 11.9437 7.73173C11.9577 7.73767 11.9724 7.74206 11.9875 7.74518C12.0025 7.74831 12.0181 7.74988 12.0334 7.74988C12.0951 7.74988 12.1555 7.72485 12.1992 7.68105C12.2102 7.67042 12.2199 7.65822 12.2283 7.64539C12.2368 7.63257 12.2443 7.61912 12.2499 7.60503C12.2559 7.59064 12.2602 7.57595 12.2634 7.56093C12.2665 7.54592 12.2681 7.53058 12.2681 7.51526C12.2681 7.49993 12.2665 7.4846 12.2634 7.46927C12.2602 7.45425 12.2559 7.43956 12.2499 7.42548C12.2443 7.41139 12.2368 7.39763 12.2284 7.38482Z" fill="var(--black)"/>
<path d="M14 9C14.7953 9.00106 15.5578 9.31746 16.1202 9.87984C16.6825 10.4422 16.9989 11.2047 17 12C17 14.1537 14.205 16.8512 14.0863 16.965C14.0632 16.9874 14.0322 17 14 17C13.9678 17 13.9369 16.9874 13.9138 16.965C13.795 16.8512 11 14.1537 11 12C11.0011 11.2047 11.3175 10.4422 11.8798 9.87984C12.4422 9.31746 13.2047 9.00106 14 9ZM14 13.375C14.272 13.375 14.5378 13.2944 14.7639 13.1433C14.99 12.9922 15.1663 12.7774 15.2703 12.5262C15.3744 12.2749 15.4016 11.9985 15.3486 11.7317C15.2955 11.465 15.1646 11.22 14.9723 11.0277C14.78 10.8354 14.535 10.7045 14.2683 10.6514C14.0015 10.5984 13.7251 10.6256 13.4738 10.7297C13.2226 10.8337 13.0078 11.01 12.8567 11.2361C12.7056 11.4622 12.625 11.728 12.625 12C12.6252 12.3646 12.7702 12.7142 13.028 12.972C13.2858 13.2298 13.6354 13.3748 14 13.375Z" fill="var(--black)"/>
</svg>
