<svg width="20" height="20" viewBox="0 0 20 20" fill="none">
<path fill-rule="evenodd" clip-rule="evenodd" d="M9.53125 18.1641H0.273438C0.117188 18.1641 0 18.0469 0 17.8906V5.15625C0 5 0.117188 4.88281 0.273438 4.88281H9.53125C9.6875 4.88281 9.80469 5 9.80469 5.15625V17.8906C9.80469 18.0469 9.6875 18.1641 9.53125 18.1641ZM0.546875 17.6172H9.25781V5.42969H0.546875V17.6172Z" fill="var(--black)"/>
<path fill-rule="evenodd" clip-rule="evenodd" d="M9.53125 9.72656H0.273438C0.117188 9.72656 0 9.60938 0 9.45312C0 9.29688 0.117188 9.17969 0.273438 9.17969H9.53125C9.6875 9.17969 9.80469 9.29688 9.80469 9.45312C9.80469 9.60938 9.6875 9.72656 9.53125 9.72656Z" fill="var(--black)"/>
<path fill-rule="evenodd" clip-rule="evenodd" d="M9.53125 13.8672H0.273438C0.117188 13.8672 0 13.75 0 13.5938C0 13.4375 0.117188 13.3203 0.273438 13.3203H9.53125C9.6875 13.3203 9.80469 13.4375 9.80469 13.5938C9.80469 13.75 9.6875 13.8672 9.53125 13.8672Z" fill="var(--black)"/>
<path fill-rule="evenodd" clip-rule="evenodd" d="M8.125 7.57812H5.66406C5.50781 7.57812 5.39062 7.46094 5.39062 7.30469C5.39062 7.14844 5.50781 7.03125 5.66406 7.03125H8.125C8.28125 7.03125 8.39844 7.14844 8.39844 7.30469C8.39844 7.46094 8.28125 7.57812 8.125 7.57812Z" fill="var(--black)"/>
<path fill-rule="evenodd" clip-rule="evenodd" d="M2.53906 8.32031C1.95312 8.32031 1.52344 7.89062 1.52344 7.30469C1.52344 6.71875 1.95312 6.25 2.53906 6.25C3.125 6.25 3.59375 6.71875 3.59375 7.30469C3.59375 7.89062 3.125 8.32031 2.53906 8.32031ZM2.53906 6.79688C2.26562 6.79688 2.07031 7.03125 2.07031 7.30469C2.07031 7.57812 2.26562 7.77344 2.53906 7.77344C2.8125 7.77344 3.04688 7.57812 3.04688 7.30469C3.04688 7.03125 2.8125 6.79688 2.53906 6.79688Z" fill="var(--black)"/>
<path fill-rule="evenodd" clip-rule="evenodd" d="M8.125 11.875H5.66406C5.50781 11.875 5.39062 11.7578 5.39062 11.6016C5.39062 11.4453 5.50781 11.3281 5.66406 11.3281H8.125C8.28125 11.3281 8.39844 11.4453 8.39844 11.6016C8.39844 11.7578 8.28125 11.875 8.125 11.875Z" fill="var(--black)"/>
<path fill-rule="evenodd" clip-rule="evenodd" d="M2.53906 12.6562C1.95312 12.6562 1.52344 12.1875 1.52344 11.6016C1.52344 11.0156 1.95312 10.5859 2.53906 10.5859C3.125 10.5859 3.59375 11.0156 3.59375 11.6016C3.59375 12.1875 3.125 12.6562 2.53906 12.6562ZM2.53906 11.1328C2.26562 11.1328 2.07031 11.3281 2.07031 11.6016C2.07031 11.875 2.26562 12.1094 2.53906 12.1094C2.8125 12.1094 3.04688 11.875 3.04688 11.6016C3.04688 11.3281 2.8125 11.1328 2.53906 11.1328Z" fill="var(--black)"/>
<path fill-rule="evenodd" clip-rule="evenodd" d="M8.125 16.1719H5.66406C5.50781 16.1719 5.39062 16.0547 5.39062 15.8984C5.39062 15.7422 5.50781 15.625 5.66406 15.625H8.125C8.28125 15.625 8.39844 15.7422 8.39844 15.8984C8.39844 16.0547 8.28125 16.1719 8.125 16.1719Z" fill="var(--black)"/>
<path fill-rule="evenodd" clip-rule="evenodd" d="M2.53906 16.9531C1.95312 16.9531 1.52344 16.4844 1.52344 15.8984C1.52344 15.3516 1.99219 14.8828 2.53906 14.8828C3.125 14.8828 3.59375 15.3516 3.59375 15.8984C3.59375 16.4844 3.125 16.9531 2.53906 16.9531ZM2.53906 15.4297C2.26562 15.4297 2.07031 15.6641 2.07031 15.8984C2.07031 16.1719 2.26562 16.4062 2.53906 16.4062C2.8125 16.4062 3.04688 16.1719 3.04688 15.8984C3.04688 15.6641 2.8125 15.4297 2.53906 15.4297Z" fill="var(--black)"/>
<path fill-rule="evenodd" clip-rule="evenodd" d="M19.7266 18.1641H9.53125C9.375 18.1641 9.25781 18.0469 9.25781 17.8906V5.42969H4.21875C4.0625 5.42969 3.94531 5.3125 3.94531 5.15625V3.71094C3.94531 3.55469 4.0625 3.4375 4.21875 3.4375H19.7266C19.8828 3.4375 20 3.55469 20 3.71094V17.8906C20 18.0469 19.8828 18.1641 19.7266 18.1641ZM9.80469 17.6172H19.4531V3.98438H4.49219V4.88281H9.53125C9.6875 4.88281 9.80469 5 9.80469 5.15625V17.6172Z" fill="var(--black)"/>
<path fill-rule="evenodd" clip-rule="evenodd" d="M19.7266 6.83594H9.53125C9.375 6.83594 9.25781 6.71875 9.25781 6.5625C9.25781 6.40625 9.375 6.28906 9.53125 6.28906H19.7266C19.8828 6.28906 20 6.40625 20 6.5625C20 6.71875 19.8828 6.83594 19.7266 6.83594Z" fill="var(--black)"/>
<path fill-rule="evenodd" clip-rule="evenodd" d="M19.7266 9.6875H9.53125C9.375 9.6875 9.25781 9.57031 9.25781 9.41406C9.25781 9.25781 9.375 9.14062 9.53125 9.14062H19.7266C19.8828 9.14062 20 9.25781 20 9.41406C20 9.57031 19.8828 9.6875 19.7266 9.6875Z" fill="var(--black)"/>
<path fill-rule="evenodd" clip-rule="evenodd" d="M19.7266 12.5391H9.53125C9.375 12.5391 9.25781 12.4219 9.25781 12.2656C9.25781 12.1094 9.375 11.9922 9.53125 11.9922H19.7266C19.8828 11.9922 20 12.1094 20 12.2656C20 12.4219 19.8828 12.5391 19.7266 12.5391Z" fill="var(--black)"/>
<path fill-rule="evenodd" clip-rule="evenodd" d="M19.7266 15.3906H9.53125C9.375 15.3906 9.25781 15.2734 9.25781 15.1172C9.25781 14.9609 9.375 14.8438 9.53125 14.8438H19.7266C19.8828 14.8438 20 14.9609 20 15.1172C20 15.2734 19.8828 15.3906 19.7266 15.3906Z" fill="var(--black)"/>
<path fill-rule="evenodd" clip-rule="evenodd" d="M11.9922 18.1641C11.8359 18.1641 11.7188 18.0469 11.7188 17.8906V3.71094C11.7188 3.55469 11.8359 3.4375 11.9922 3.4375C12.1484 3.4375 12.2656 3.55469 12.2656 3.71094V17.8906C12.2656 18.0469 12.1484 18.1641 11.9922 18.1641Z" fill="var(--black)"/>
<path fill-rule="evenodd" clip-rule="evenodd" d="M7.46094 5.42969C7.30469 5.42969 7.1875 5.3125 7.1875 5.15625V3.71094C7.1875 3.55469 7.30469 3.4375 7.46094 3.4375C7.61719 3.4375 7.73438 3.55469 7.73438 3.71094V5.15625C7.73438 5.3125 7.61719 5.42969 7.46094 5.42969Z" fill="var(--black)"/>
<path fill-rule="evenodd" clip-rule="evenodd" d="M16.4844 18.1641C16.3281 18.1641 16.2109 18.0469 16.2109 17.8906V3.71094C16.2109 3.55469 16.3281 3.4375 16.4844 3.4375C16.6406 3.4375 16.7578 3.55469 16.7578 3.71094V17.8906C16.7578 18.0469 16.6406 18.1641 16.4844 18.1641Z" fill="var(--black)"/>
<path fill-rule="evenodd" clip-rule="evenodd" d="M19.7266 3.98438H4.21875C4.0625 3.98438 3.94531 3.86719 3.94531 3.71094V2.10938C3.94531 1.95312 4.0625 1.83594 4.21875 1.83594H19.7266C19.8828 1.83594 20 1.95312 20 2.10938V3.71094C20 3.86719 19.8828 3.98438 19.7266 3.98438ZM4.49219 3.4375H19.4531V2.38281H4.49219V3.4375Z" fill="var(--black)"/>
</svg>
