<svg width="20" height="20" viewBox="0 0 20 20" fill="none">
<path d="M2.71125 5.13658H13.9198C14.312 5.13658 14.631 4.81752 14.631 4.42535V2.71125C14.631 2.31907 14.312 2 13.9198 2H2.71125C2.31907 2 2 2.31907 2 2.71125V4.42534C2 4.81752 2.31907 5.13658 2.71125 5.13658ZM2.46924 2.71125C2.46924 2.57781 2.57781 2.46924 2.71125 2.46924H13.9198C14.0533 2.46924 14.1618 2.57781 14.1618 2.71125V4.42534C14.1618 4.55878 14.0533 4.66734 13.9198 4.66734H2.71125C2.57781 4.66734 2.46924 4.55878 2.46924 4.42534V2.71125Z" fill="var(--black)"/>
<path d="M4.2854 3.80292H9.71888C9.84847 3.80292 9.9535 3.69787 9.9535 3.5683C9.9535 3.43872 9.84847 3.33368 9.71888 3.33368H4.2854C4.15582 3.33368 4.05078 3.43872 4.05078 3.5683C4.05078 3.69787 4.15582 3.80292 4.2854 3.80292Z" fill="var(--black)"/>
<path d="M12.1275 3.65811C12.1331 3.6722 12.1407 3.68596 12.1491 3.69847C12.1576 3.7113 12.1672 3.7235 12.1782 3.73413C12.1891 3.74508 12.201 3.75478 12.2139 3.76323C12.2267 3.77168 12.2401 3.77918 12.2542 3.78481C12.2686 3.79075 12.2833 3.79544 12.2983 3.79825C12.3133 3.80139 12.3287 3.80296 12.344 3.80296C12.3593 3.80296 12.375 3.80139 12.39 3.79825C12.405 3.79545 12.4197 3.79076 12.4338 3.78481C12.4479 3.77918 12.4616 3.77168 12.4744 3.76323C12.4873 3.75478 12.4992 3.74508 12.5101 3.73413C12.5208 3.7235 12.5307 3.7113 12.5392 3.69847C12.5476 3.68596 12.5548 3.6722 12.5608 3.65811C12.5667 3.64372 12.5711 3.62903 12.5742 3.61401C12.5771 3.599 12.5786 3.58366 12.5786 3.56834C12.5786 3.55301 12.5771 3.53767 12.5742 3.52235C12.5711 3.50733 12.5667 3.49262 12.5608 3.47856C12.5548 3.46447 12.5476 3.45071 12.5392 3.4382C12.5307 3.42507 12.5208 3.41317 12.5101 3.40254C12.4992 3.39158 12.4873 3.38188 12.4744 3.37313C12.4616 3.36469 12.4479 3.35749 12.4338 3.35155C12.4197 3.34591 12.405 3.34123 12.39 3.33842C12.3596 3.33215 12.3284 3.33215 12.2983 3.33842C12.2833 3.34123 12.2686 3.34591 12.2542 3.35155C12.2401 3.35749 12.2267 3.36469 12.2139 3.37313C12.201 3.38189 12.1891 3.39158 12.1782 3.40254C12.1344 3.44602 12.1094 3.50671 12.1094 3.56834C12.1094 3.58366 12.1109 3.599 12.1141 3.61402C12.1172 3.62903 12.1216 3.64372 12.1275 3.65811Z" fill="var(--black)"/>
<path d="M9.3675 8.61423H2.71125C2.57781 8.61423 2.46924 8.50567 2.46924 8.37224V6.65814C2.46924 6.5247 2.57781 6.41613 2.71125 6.41613H13.9198C14.0533 6.41613 14.1618 6.5247 14.1618 6.65814V7.67947C14.1618 7.80904 14.2668 7.91409 14.3964 7.91409C14.526 7.91409 14.631 7.80904 14.631 7.67947V6.65814C14.631 6.26596 14.312 5.94689 13.9198 5.94689H2.71125C2.31907 5.94689 2 6.26596 2 6.65814V8.37224C2 8.76441 2.31907 9.08347 2.71125 9.08347H9.3675C9.49709 9.08347 9.60212 8.97843 9.60212 8.84885C9.60212 8.71928 9.49709 8.61423 9.3675 8.61423Z" fill="var(--black)"/>
<path d="M9.9535 7.51518C9.9535 7.38561 9.84847 7.28057 9.71888 7.28057H4.2854C4.15582 7.28057 4.05078 7.38561 4.05078 7.51518C4.05078 7.64476 4.15582 7.7498 4.2854 7.7498H9.71888C9.84847 7.7498 9.9535 7.64476 9.9535 7.51518Z" fill="var(--black)"/>
<path d="M12.5392 7.38481C12.5307 7.37198 12.5208 7.3601 12.5101 7.34915C12.4992 7.3385 12.4873 7.32882 12.4744 7.32005C12.4616 7.3116 12.4479 7.30441 12.4338 7.29847C12.4197 7.29283 12.405 7.28814 12.39 7.28533C12.3596 7.27907 12.3284 7.27907 12.2983 7.28533C12.2833 7.28814 12.2686 7.29283 12.2542 7.29847C12.2401 7.30441 12.2267 7.3116 12.2139 7.32005C12.201 7.32882 12.1891 7.3385 12.1782 7.34915C12.1344 7.39294 12.1094 7.45332 12.1094 7.51526C12.1094 7.57688 12.1344 7.63726 12.1782 7.68105C12.1891 7.69201 12.201 7.70171 12.2139 7.71015C12.2267 7.7186 12.2401 7.7261 12.2542 7.73174C12.2686 7.73768 12.2833 7.74206 12.2983 7.74518C12.3133 7.74831 12.3287 7.74988 12.344 7.74988C12.3593 7.74988 12.375 7.74831 12.39 7.74518C12.405 7.74206 12.4197 7.73768 12.4338 7.73174C12.4479 7.7261 12.4616 7.7186 12.4744 7.71015C12.4873 7.70171 12.4992 7.69201 12.5101 7.68105C12.5208 7.67042 12.5307 7.65822 12.5392 7.64539C12.5476 7.63257 12.5548 7.61912 12.5608 7.60503C12.5667 7.59064 12.5711 7.57595 12.5742 7.56094C12.5771 7.54592 12.5786 7.53059 12.5786 7.51526C12.5786 7.49993 12.5771 7.48461 12.5742 7.46927C12.5711 7.45426 12.5667 7.43956 12.5608 7.42548C12.5548 7.41139 12.5476 7.39763 12.5392 7.38481Z" fill="var(--black)"/>
<path d="M9.3675 12.6213H2.71125C2.57781 12.6213 2.46924 12.5128 2.46924 12.3793V10.6652C2.46924 10.5318 2.57781 10.4232 2.71125 10.4232H9.32525C9.45484 10.4232 9.55987 10.3182 9.55987 10.1886C9.55987 10.059 9.45484 9.95401 9.32525 9.95401H2.71125C2.31907 9.95401 2 10.2731 2 10.6652V12.3793C2 12.7715 2.31907 13.0906 2.71125 13.0906H9.3675C9.49709 13.0906 9.60212 12.9855 9.60212 12.856C9.60212 12.7264 9.49709 12.6213 9.3675 12.6213Z" fill="var(--black)"/>
<path d="M4.2854 11.2877C4.15582 11.2877 4.05078 11.3927 4.05078 11.5223C4.05078 11.6519 4.15582 11.7569 4.2854 11.7569H7.92939C8.05897 11.7569 8.16401 11.6519 8.16401 11.5223C8.16401 11.3927 8.05897 11.2877 7.92939 11.2877H4.2854Z" fill="var(--black)"/>
<path d="M10.903 3.76323C10.9158 3.77168 10.9293 3.77918 10.9437 3.78481C10.9577 3.79075 10.9724 3.79514 10.9875 3.79826C11.0025 3.80139 11.0181 3.80296 11.0335 3.80296C11.0951 3.80296 11.1555 3.77792 11.1992 3.73413C11.2431 3.69065 11.2681 3.62996 11.2681 3.56834C11.2681 3.55301 11.2665 3.53767 11.2634 3.52235C11.2602 3.50764 11.2559 3.49262 11.2499 3.47856C11.2443 3.46447 11.2368 3.45071 11.2284 3.4382C11.2199 3.42507 11.2102 3.41317 11.1992 3.40254C11.1448 3.34779 11.0635 3.32277 10.9875 3.33841C10.9724 3.34122 10.9577 3.34591 10.9437 3.35155C10.9293 3.35749 10.9158 3.36468 10.903 3.37313C10.8902 3.38188 10.8783 3.39158 10.8674 3.40253C10.8567 3.41316 10.8467 3.42506 10.8382 3.4382C10.8298 3.45071 10.8226 3.46447 10.8167 3.47855C10.8107 3.49262 10.8063 3.50764 10.8032 3.52235C10.8004 3.53767 10.7988 3.553 10.7988 3.56834C10.7988 3.62995 10.8238 3.69064 10.8673 3.73413C10.8783 3.74508 10.8902 3.75478 10.903 3.76323Z" fill="var(--black)"/>
<path d="M11.2284 7.38482C11.2199 7.37198 11.2102 7.3601 11.1992 7.34915C11.1448 7.29471 11.0635 7.26969 10.9875 7.28533C10.9724 7.28814 10.9577 7.29283 10.9437 7.29847C10.9293 7.30441 10.9158 7.31161 10.903 7.32005C10.8902 7.3285 10.8783 7.3385 10.8674 7.34915C10.8567 7.3601 10.8467 7.37199 10.8382 7.38482C10.8298 7.39763 10.8226 7.41139 10.8167 7.42548C10.8107 7.43956 10.8063 7.45425 10.8032 7.46927C10.8004 7.4846 10.7988 7.49993 10.7988 7.51526C10.7988 7.57688 10.8238 7.63726 10.8673 7.68105C10.8783 7.692 10.8902 7.70171 10.903 7.71015C10.9158 7.7186 10.9293 7.7261 10.9437 7.73173C10.9577 7.73767 10.9724 7.74206 10.9875 7.74518C11.0025 7.74831 11.0181 7.74988 11.0334 7.74988C11.0951 7.74988 11.1555 7.72485 11.1992 7.68105C11.2102 7.67042 11.2199 7.65822 11.2283 7.64539C11.2368 7.63257 11.2443 7.61912 11.2499 7.60503C11.2559 7.59064 11.2602 7.57595 11.2634 7.56093C11.2665 7.54592 11.2681 7.53058 11.2681 7.51526C11.2681 7.49993 11.2665 7.4846 11.2634 7.46927C11.2602 7.45425 11.2559 7.43956 11.2499 7.42548C11.2443 7.41139 11.2368 7.39763 11.2284 7.38482Z" fill="var(--black)"/>
<path d="M10.5801 12.5702V12.5702L13.8444 9.3064C13.9835 9.16724 14.1684 9.09058 14.3652 9.09058C14.5619 9.09058 14.7469 9.16718 14.8861 9.30634L18.148 12.5679L18.1513 12.5713C18.437 12.8586 18.4365 13.3247 18.1499 13.6113C18.019 13.7423 17.8461 13.8181 17.6612 13.8261C17.6537 13.8268 17.6461 13.8272 17.6385 13.8272H17.5084V16.2287C17.5084 16.7039 17.1217 17.0906 16.6463 17.0906H15.3694C15.24 17.0906 15.135 16.9857 15.135 16.8562V14.9734C15.135 14.7565 14.9586 14.5801 14.7417 14.5801H13.9886C13.7717 14.5801 13.5953 14.7565 13.5953 14.9734V16.8562C13.5953 16.9857 13.4904 17.0906 13.3609 17.0906H12.0841C11.6087 17.0906 11.222 16.7039 11.222 16.2287V13.8272H11.1014C10.9047 13.8272 10.7197 13.7506 10.5805 13.6114C10.2936 13.3243 10.2935 12.8574 10.5801 12.5702Z" fill="var(--black)"/>
</svg>
