<svg width="56" height="56" viewBox="0 0 56 56" fill="none" xmlns="http://www.w3.org/2000/svg">
<circle cx="28" cy="28" r="28" fill="#40ddff"/>
<g clip-path="url(#clip0_2829_3557)">
<path d="M35.7917 45C30.7144 45 26.5834 40.869 26.5834 35.7917C26.5834 30.7143 30.7144 26.5833 35.7917 26.5833C40.869 26.5833 45 30.7143 45 35.7917C45 40.869 40.869 45 35.7917 45ZM35.7917 28C31.495 28 28 31.4963 28 35.7917C28 40.087 31.495 43.5833 35.7917 43.5833C40.0885 43.5833 43.5834 40.087 43.5834 35.7917C43.5834 31.4963 40.0885 28 35.7917 28Z" fill="white"/>
<path d="M37.2083 22.3333H15.9583C13.2242 22.3333 11 20.1092 11 17.375C11 14.6408 13.2242 12.4167 15.9583 12.4167H37.2083C39.9425 12.4167 42.1667 14.6408 42.1667 17.375C42.1667 20.1092 39.9425 22.3333 37.2083 22.3333ZM15.9583 13.8333C14.0062 13.8333 12.4167 15.4214 12.4167 17.375C12.4167 19.3286 14.0062 20.9167 15.9583 20.9167H37.2083C39.1605 20.9167 40.75 19.3286 40.75 17.375C40.75 15.4214 39.1605 13.8333 37.2083 13.8333H15.9583Z" fill="white"/>
<path d="M24.4583 30.8333H15.9583C13.2242 30.8333 11 28.6092 11 25.875C11 24.5518 11.5157 23.308 12.4535 22.3702C13.3913 21.4323 14.6366 20.9167 15.9583 20.9167H37.2083C39.2143 20.9167 41.0064 22.1052 41.7714 23.9455C41.9216 24.3067 41.7516 24.7218 41.3903 24.872C41.0319 25.0193 40.614 24.8522 40.4638 24.4895C39.9184 23.1805 38.6406 22.3333 37.2083 22.3333H15.9583C15.0148 22.3333 14.1266 22.7031 13.4551 23.3717C12.7836 24.0404 12.4167 24.9315 12.4167 25.875C12.4167 27.8286 14.0062 29.4167 15.9583 29.4167H24.4583C24.8493 29.4167 25.1667 29.734 25.1667 30.125C25.1667 30.516 24.8493 30.8333 24.4583 30.8333Z" fill="white"/>
<path d="M23.0417 39.3333H15.9583C13.2242 39.3333 11 37.1092 11 34.375C11 33.0518 11.5157 31.808 12.4535 30.8702C13.3913 29.9323 14.6366 29.4167 15.9583 29.4167H24.4583C24.8493 29.4167 25.1667 29.734 25.1667 30.125C25.1667 30.516 24.8493 30.8333 24.4583 30.8333H15.9583C15.0148 30.8333 14.1266 31.2031 13.4551 31.8717C12.7836 32.5404 12.4167 33.4315 12.4167 34.375C12.4167 36.3286 14.0062 37.9167 15.9583 37.9167H23.0417C23.4327 37.9167 23.75 38.234 23.75 38.625C23.75 39.016 23.4327 39.3333 23.0417 39.3333Z" fill="white"/>
<path d="M17.375 28C16.2034 28 15.25 27.0466 15.25 25.875C15.25 24.7034 16.2034 23.75 17.375 23.75C18.5466 23.75 19.5 24.7034 19.5 25.875C19.5 27.0466 18.5466 28 17.375 28ZM17.375 25.1667C16.984 25.1667 16.6667 25.4854 16.6667 25.875C16.6667 26.2646 16.984 26.5833 17.375 26.5833C17.766 26.5833 18.0833 26.2646 18.0833 25.875C18.0833 25.4854 17.766 25.1667 17.375 25.1667Z" fill="white"/>
<path d="M24.4584 28C23.2868 28 22.3334 27.0466 22.3334 25.875C22.3334 24.7034 23.2868 23.75 24.4584 23.75C25.63 23.75 26.5834 24.7034 26.5834 25.875C26.5834 27.0466 25.63 28 24.4584 28ZM24.4584 25.1667C24.0674 25.1667 23.75 25.4854 23.75 25.875C23.75 26.2646 24.0674 26.5833 24.4584 26.5833C24.8494 26.5833 25.1667 26.2646 25.1667 25.875C25.1667 25.4854 24.8494 25.1667 24.4584 25.1667Z" fill="white"/>
<path d="M17.375 36.5C16.2034 36.5 15.25 35.5466 15.25 34.375C15.25 33.2034 16.2034 32.25 17.375 32.25C18.5466 32.25 19.5 33.2034 19.5 34.375C19.5 35.5466 18.5466 36.5 17.375 36.5ZM17.375 33.6667C16.984 33.6667 16.6667 33.9854 16.6667 34.375C16.6667 34.7646 16.984 35.0833 17.375 35.0833C17.766 35.0833 18.0833 34.7646 18.0833 34.375C18.0833 33.9854 17.766 33.6667 17.375 33.6667Z" fill="white"/>
<path d="M24.4584 36.5C23.2868 36.5 22.3334 35.5466 22.3334 34.375C22.3334 33.2034 23.2868 32.25 24.4584 32.25C24.8494 32.25 25.1667 32.5673 25.1667 32.9583C25.1667 33.3493 24.8494 33.6667 24.4584 33.6667C24.0674 33.6667 23.75 33.9854 23.75 34.375C23.75 34.7646 24.0674 35.0833 24.4584 35.0833C24.8494 35.0833 25.1667 35.4007 25.1667 35.7917C25.1667 36.1827 24.8494 36.5 24.4584 36.5Z" fill="white"/>
<path d="M17.375 19.5C16.2034 19.5 15.25 18.5466 15.25 17.375C15.25 16.2034 16.2034 15.25 17.375 15.25C18.5466 15.25 19.5 16.2034 19.5 17.375C19.5 18.5466 18.5466 19.5 17.375 19.5ZM17.375 16.6667C16.984 16.6667 16.6667 16.9854 16.6667 17.375C16.6667 17.7646 16.984 18.0833 17.375 18.0833C17.766 18.0833 18.0833 17.7646 18.0833 17.375C18.0833 16.9854 17.766 16.6667 17.375 16.6667Z" fill="white"/>
<path d="M24.4584 19.5C23.2868 19.5 22.3334 18.5466 22.3334 17.375C22.3334 16.2034 23.2868 15.25 24.4584 15.25C25.63 15.25 26.5834 16.2034 26.5834 17.375C26.5834 18.5466 25.63 19.5 24.4584 19.5ZM24.4584 16.6667C24.0674 16.6667 23.75 16.9854 23.75 17.375C23.75 17.7646 24.0674 18.0833 24.4584 18.0833C24.8494 18.0833 25.1667 17.7646 25.1667 17.375C25.1667 16.9854 24.8494 16.6667 24.4584 16.6667Z" fill="white"/>
<path d="M40.0417 36.5H31.5417C31.1507 36.5 30.8334 36.1827 30.8334 35.7917C30.8334 35.4007 31.1507 35.0833 31.5417 35.0833H40.0417C40.4327 35.0833 40.75 35.4007 40.75 35.7917C40.75 36.1827 40.4327 36.5 40.0417 36.5Z" fill="white"/>
<path d="M35.7917 40.75C35.4007 40.75 35.0834 40.4327 35.0834 40.0417V31.5417C35.0834 31.1507 35.4007 30.8333 35.7917 30.8333C36.1827 30.8333 36.5 31.1507 36.5 31.5417V40.0417C36.5 40.4327 36.1827 40.75 35.7917 40.75Z" fill="white"/>
</g>
<defs>
<clipPath id="clip0_2829_3557">
<rect width="34" height="34" fill="white" transform="translate(11 11)"/>
</clipPath>
</defs>
</svg>
