<svg width="14" height="14" viewBox="0 0 14 12" fill="none" xmlns="http://www.w3.org/2000/svg">
<path d="M5.83335 2.33333H2.33335C1.68585 2.33333 1.16669 2.85249 1.16669 3.49999V10.5C1.16669 11.1399 1.69344 11.6667 2.33335 11.6667H11.6667C12.3066 11.6667 12.8334 11.1399 12.8334 10.5V4.66666C12.8334 4.35724 12.7104 4.0605 12.4916 3.8417C12.2729 3.62291 11.9761 3.49999 11.6667 3.49999H7.00002L5.83335 2.33333Z" fill="#0277BD"/>
<path d="M10.8354 7.50108H13.0014L10.8354 5.33516V7.50108ZM8.07919 4.74483H11.2292L13.5917 7.10733V11.8323C13.5917 12.264 13.2359 12.6198 12.8042 12.6198H8.07919C7.87033 12.6198 7.67003 12.5369 7.52234 12.3892C7.37466 12.2415 7.29169 12.0412 7.29169 11.8323V5.53233C7.29169 5.09483 7.64169 4.74483 8.07919 4.74483ZM11.6229 11.0448V10.2573H8.07919V11.0448H11.6229ZM12.8042 9.46983V8.68233H8.07919V9.46983H12.8042Z" fill="#B3E5FC"/>
</svg>
