<svg width="14" height="14" viewBox="0 0 14 12" fill="none" xmlns="http://www.w3.org/2000/svg">
<path d="M5.83335 2.33333H2.33335C1.68585 2.33333 1.16669 2.85249 1.16669 3.49999V10.5C1.16669 11.1399 1.69344 11.6667 2.33335 11.6667H11.6667C12.3066 11.6667 12.8334 11.1399 12.8334 10.5V4.66666C12.8334 4.35724 12.7104 4.0605 12.4916 3.8417C12.2729 3.62291 11.9761 3.49999 11.6667 3.49999H7.00002L5.83335 2.33333Z" fill="#00ACC1"/>
<path fill-rule="evenodd" clip-rule="evenodd" d="M10.0876 10.3752C9.73051 10.3752 9.38807 10.2333 9.13558 9.98083C8.88309 9.72834 8.74125 9.3859 8.74125 9.02883C8.7414 8.67186 8.88332 8.32956 9.13579 8.0772C9.38826 7.82484 9.73061 7.68308 10.0876 7.68308C10.4445 7.68308 10.7869 7.82484 11.0394 8.0772C11.2918 8.32956 11.4338 8.67186 11.4339 9.02883C11.4339 9.3859 11.2921 9.72834 11.0396 9.98083C10.7871 10.2333 10.4447 10.3752 10.0876 10.3752ZM12.9453 9.40216C12.9605 9.27908 12.9722 9.15599 12.9722 9.02883C12.9722 8.90224 12.9605 8.77508 12.9453 8.64441L13.7567 8.01733C13.7923 7.9884 13.8165 7.94782 13.8251 7.90277C13.8336 7.85772 13.8259 7.8111 13.8034 7.77116L13.0334 6.44116C12.9873 6.35599 12.8835 6.32158 12.7989 6.35599L11.8417 6.74099C11.6429 6.58639 11.4241 6.45943 11.1912 6.36358L11.0489 5.34449C11.0412 5.29912 11.0176 5.25797 10.9823 5.22837C10.9471 5.19878 10.9024 5.18267 10.8564 5.18291H9.31816C9.27214 5.18267 9.22752 5.19878 9.19226 5.22837C9.15701 5.25797 9.13341 5.29912 9.12566 5.34449L8.98391 6.36358C8.7513 6.4593 8.5327 6.58606 8.33408 6.74041L7.37625 6.35599C7.33355 6.33924 7.28622 6.33858 7.24308 6.35414C7.19993 6.3697 7.16392 6.40042 7.14175 6.44058L6.37233 7.77116C6.34884 7.81085 6.34061 7.85774 6.3492 7.90305C6.35779 7.94836 6.38261 7.98899 6.419 8.01733L7.22983 8.64441C7.21467 8.77508 7.203 8.90224 7.203 9.02941C7.203 9.15658 7.21467 9.27908 7.22983 9.40216L6.419 10.0403C6.38261 10.0687 6.35779 10.1093 6.3492 10.1546C6.34061 10.1999 6.34884 10.2468 6.37233 10.2865L7.14175 11.6177C7.16462 11.6571 7.20068 11.6872 7.24358 11.7027C7.28648 11.7182 7.33346 11.718 7.37625 11.7022L8.33408 11.3137C8.53358 11.4677 8.74125 11.5984 8.98391 11.6947L9.12625 12.7137C9.13399 12.7591 9.15759 12.8003 9.19284 12.8299C9.2281 12.8595 9.27272 12.8756 9.31875 12.8753H10.857C10.903 12.8756 10.9476 12.8595 10.9829 12.8299C11.0182 12.8003 11.0418 12.7591 11.0495 12.7137L11.1912 11.6947C11.4242 11.5976 11.643 11.4694 11.8417 11.3137L12.7989 11.7022C12.8835 11.7326 12.9873 11.7022 13.034 11.6177L13.8028 10.2865C13.8254 10.2466 13.8332 10.2 13.8248 10.155C13.8163 10.1099 13.7922 10.0693 13.7567 10.0403L12.9453 9.40216Z" fill="#80DEEA"/>
</svg>
