<svg width="14" height="14" viewBox="0 0 14 12" fill="none" xmlns="http://www.w3.org/2000/svg">
<path d="M5.83335 2.33333H2.33335C1.68585 2.33333 1.16669 2.85249 1.16669 3.49999V10.5C1.16669 11.1399 1.69344 11.6667 2.33335 11.6667H11.6667C12.3066 11.6667 12.8334 11.1399 12.8334 10.5V4.66666C12.8334 4.35724 12.7104 4.0605 12.4916 3.8417C12.2729 3.62291 11.9761 3.49999 11.6667 3.49999H7.00002L5.83335 2.33333Z" fill="#FFCA28"/>
<path fill-rule="evenodd" clip-rule="evenodd" d="M10.3606 5.16776C8.51956 5.16776 7.02856 5.91326 7.02856 6.83376C7.02856 7.75425 8.51956 8.49975 10.3606 8.49975C12.2016 8.49975 13.6926 7.75425 13.6926 6.83376C13.6926 5.91326 12.2016 5.16776 10.3606 5.16776ZM7.02856 7.66675V8.91625C7.02856 9.83675 8.51956 10.5823 10.3606 10.5823C12.2016 10.5823 13.6926 9.83675 13.6926 8.91625V7.66675C13.6926 8.58725 12.2016 9.33275 10.3606 9.33275C8.51956 9.33275 7.02856 8.58725 7.02856 7.66675ZM7.02856 9.74925V10.9988C7.02856 11.9187 8.51956 12.6642 10.3606 12.6642C12.2016 12.6642 13.6926 11.9187 13.6926 10.9982V9.74925C13.6926 10.6698 12.2016 11.4153 10.3606 11.4153C8.51956 11.4153 7.02856 10.6698 7.02856 9.74925Z" fill="#FFECB3"/>
</svg>
