<svg width="14" height="14" viewBox="0 0 14 12" fill="none" xmlns="http://www.w3.org/2000/svg">
<path d="M5.83335 2.33334H2.33335C1.68585 2.33334 1.16669 2.85251 1.16669 3.50001V10.5C1.16669 11.1399 1.69344 11.6667 2.33335 11.6667H11.6667C12.3066 11.6667 12.8334 11.1399 12.8334 10.5V4.66668C12.8334 4.35726 12.7104 4.06051 12.4916 3.84172C12.2729 3.62293 11.9761 3.50001 11.6667 3.50001H7.00002L5.83335 2.33334Z" fill="#42A5F5"/>
<path fill-rule="evenodd" clip-rule="evenodd" d="M9.27828 4.97971C8.99275 4.97971 8.71892 5.09314 8.51703 5.29504C8.31513 5.49695 8.2017 5.77079 8.2017 6.05633V6.68875H9.81657C9.96337 6.68875 10.0838 6.90333 10.0838 7.05014H7.39616C7.11063 7.05014 6.8368 7.16357 6.6349 7.36548C6.433 7.56738 6.31958 7.84123 6.31958 8.12676V9.55047C6.31958 10.1452 6.8014 10.6263 7.39616 10.6263H7.84034V9.61748C7.83984 9.47627 7.86722 9.33636 7.92092 9.20576C7.97461 9.07515 8.05355 8.95644 8.15322 8.85642C8.25289 8.75639 8.37132 8.67703 8.50173 8.62288C8.63214 8.56873 8.77195 8.54085 8.91315 8.54085H10.8894C11.0306 8.54135 11.1705 8.51396 11.3011 8.46027C11.4317 8.40657 11.5504 8.32763 11.6504 8.22795C11.7504 8.12828 11.8298 8.00984 11.8839 7.87943C11.9381 7.74902 11.966 7.6092 11.966 7.46799V6.05633C11.966 5.77079 11.8525 5.49695 11.6506 5.29504C11.4487 5.09314 11.1749 4.97971 10.8894 4.97971H9.27828ZM9.00725 5.58578C9.15782 5.58578 9.27828 5.63133 9.27828 5.85343C9.27828 6.07553 9.15782 6.18846 9.00725 6.18846C8.86045 6.18846 8.73999 6.07553 8.73999 5.85343C8.73999 5.63133 8.86045 5.58615 9.00725 5.58615V5.58578Z" fill="#3C78AA"/>
<path fill-rule="evenodd" clip-rule="evenodd" d="M12.327 6.86194V7.8708C12.3275 8.01201 12.3001 8.15193 12.2464 8.28253C12.1927 8.41313 12.1137 8.53184 12.0141 8.63187C11.9144 8.73189 11.796 8.81125 11.6656 8.8654C11.5352 8.91956 11.3954 8.94743 11.2542 8.94743H9.2783C9.13716 8.94693 8.99731 8.97429 8.86677 9.02794C8.73622 9.08159 8.61755 9.16047 8.51754 9.26006C8.41753 9.35966 8.33815 9.47801 8.28396 9.60833C8.22977 9.73866 8.20182 9.87839 8.20172 10.0195V11.4312C8.20162 11.5726 8.2294 11.7127 8.28345 11.8434C8.33751 11.9741 8.4168 12.0929 8.51678 12.193C8.61676 12.293 8.73547 12.3724 8.86614 12.4266C8.9968 12.4807 9.13686 12.5086 9.2783 12.5086H10.8894C11.0308 12.5086 11.1708 12.4807 11.3015 12.4266C11.4321 12.3725 11.5508 12.2931 11.6508 12.1931C11.7508 12.0931 11.83 11.9744 11.8841 11.8437C11.9382 11.713 11.966 11.573 11.966 11.4316V10.7992H10.3507C10.2039 10.7992 10.0838 10.585 10.0838 10.4381H12.7715C12.9129 10.4381 13.053 10.4103 13.1836 10.3562C13.3142 10.302 13.4329 10.2227 13.5329 10.1227C13.6329 10.0227 13.7122 9.90393 13.7663 9.77326C13.8203 9.6426 13.8481 9.50256 13.8481 9.36114V7.93819C13.848 7.65271 13.7345 7.37897 13.5326 7.17714C13.3308 6.97532 13.057 6.86194 12.7715 6.86194H12.327ZM8.6986 8.5612L8.6971 8.56271C8.70161 8.56158 8.70651 8.56195 8.7114 8.5612H8.6986ZM11.1604 11.2998C11.3072 11.2998 11.4277 11.4128 11.4277 11.6349C11.4277 11.67 11.4208 11.7047 11.4073 11.7371C11.3939 11.7696 11.3742 11.799 11.3494 11.8238C11.3246 11.8487 11.2951 11.8684 11.2627 11.8818C11.2303 11.8952 11.1955 11.9021 11.1604 11.9021C11.0099 11.9021 10.8894 11.857 10.8894 11.6349C10.8894 11.4128 11.0099 11.2998 11.1604 11.2998Z" fill="#FDD835"/>
</svg>
