<svg width="14" height="14" viewBox="0 0 14 12" fill="none" xmlns="http://www.w3.org/2000/svg">
<path d="M11.0834 11.6667H2.33335C2.02393 11.6667 1.72719 11.5437 1.5084 11.325C1.2896 11.1062 1.16669 10.8094 1.16669 10.5V3.49999C1.16669 2.85249 1.68585 2.33333 2.33335 2.33333H5.83335L7.00002 3.49999H11.0834C11.7233 3.49999 12.25 4.02674 12.25 4.66666H2.33335V10.5L3.58169 5.83333H13.5392L12.2092 10.7917C12.075 11.2992 11.62 11.6667 11.0834 11.6667Z" fill="#0288D1"/>
<path d="M13.5847 10.5087C13.5849 10.5775 13.5662 10.6451 13.5308 10.704C13.4953 10.7629 13.4443 10.811 13.3834 10.843L10.3851 12.5277C10.325 12.5732 10.2486 12.5959 10.1693 12.5959C10.0899 12.5959 10.0135 12.5732 9.95343 12.5277L6.9551 10.843C6.8942 10.811 6.84324 10.7629 6.80776 10.704C6.77228 10.6451 6.75363 10.5775 6.75385 10.5087V7.09333C6.75385 6.94925 6.83318 6.82383 6.9551 6.75908L9.95343 5.07441C10.0135 5.02891 10.0893 5.00616 10.1693 5.00616C10.2492 5.00616 10.325 5.02891 10.3851 5.07441L13.3834 6.75908C13.4442 6.79118 13.4951 6.83928 13.5306 6.89818C13.5661 6.95709 13.5848 7.02457 13.5847 7.09333V10.5087ZM10.1693 5.82225L7.9071 7.09333L10.1693 8.365L12.4308 7.09333L10.1693 5.82166M7.51276 10.2847L9.78951 11.5675V9.02125L7.51276 7.742V10.2847ZM12.8258 10.2853V7.742L10.5484 9.02125V11.5675L12.8258 10.2853Z" fill="#B3E5FC"/>
</svg>
