<svg width="24" height="24" viewBox="0 0 24 24" fill="var(--black)"
  xmlns="http://www.w3.org/2000/svg">
  <path
    d="M19.7112 8.67185C19.7816 8.59451 19.7745 8.47732 19.6972 8.40701C19.662 8.37654 19.6175 8.35779 19.573 8.35779H17.8714C17.8152 8.35779 17.7636 8.38123 17.7284 8.42341L14.848 11.8265C14.78 11.9062 14.6628 11.9156 14.5831 11.8476C14.562 11.8289 14.5456 11.8078 14.5339 11.782L13.0456 8.47029C13.0152 8.40232 12.9495 8.36013 12.8745 8.36013H8.92297L8.94406 8.24998L9.13156 7.25857C9.37765 5.96013 10.0222 5.35076 11.1425 5.35076C11.5784 5.35076 11.9745 5.3906 12.2862 5.46091L12.6167 3.89529C12.087 3.78513 11.7917 3.75232 11.33 3.75232C8.9089 3.75232 7.66437 4.7906 7.20734 7.20466L6.98703 8.36248H4.69953C4.61047 8.36248 4.53312 8.42576 4.51672 8.51248L4.26359 9.72654C4.2425 9.82732 4.30812 9.9281 4.4089 9.94919C4.42062 9.95154 4.43468 9.95388 4.4464 9.95388H6.65656L4.57062 20.0297C4.54953 20.1304 4.61515 20.2312 4.71593 20.2523C4.72765 20.2547 4.74172 20.257 4.75343 20.257H6.305C6.39406 20.257 6.4714 20.1937 6.48781 20.107L8.59015 9.95623H11.773L13.3714 13.2164C13.4042 13.2844 13.3948 13.3664 13.3433 13.4226L9.11047 18.1804C9.0425 18.2578 9.04953 18.3773 9.12687 18.4453C9.16203 18.4758 9.20656 18.4922 9.25109 18.4922H10.955C11.0112 18.4922 11.0628 18.4687 11.098 18.4265L13.9972 14.9883C14.0628 14.9086 14.1823 14.8992 14.262 14.9648C14.2831 14.9836 14.2995 15.0047 14.3112 15.0304L15.8534 18.375C15.8839 18.4406 15.9495 18.4851 16.0245 18.4851H17.5386C17.6417 18.4851 17.7261 18.4008 17.7261 18.2976C17.7261 18.2695 17.7191 18.2414 17.7073 18.2156L15.4761 13.5539C15.4433 13.4859 15.455 13.4039 15.5066 13.3476L19.7112 8.67185Z"
    fill="var(--black)" fill-opacity="0.88" />
</svg>
