<svg id="Layer_3" height="20" viewBox="0 0 100 100" width="20" xmlns="http://www.w3.org/2000/svg"
  data-name="Layer 3">
  <path
    fill="var(--black)"
    d="m88.28 43.29a6.72 6.72 0 0 0 -6.4 4.71h-28.39v-2.65-4.23h19.09a2 2 0 0 0 1.11-.34l9.1-6.07a6.64 6.64 0 0 0 3 .71 6.72 6.72 0 1 0 -5.92-3.56l-7.87 5.26h-18.51v-7.27h9.67a2 2 0 0 0 1.63-.85l4.21-5.88a6.69 6.69 0 1 0 -4.37-.75l-2.47 3.48h-8.67v-5c0-.06 0-.13 0-.2a13.5 13.5 0 0 0 -24.28-6.65 16.44 16.44 0 0 0 -15.21 16.35 16.63 16.63 0 0 0 .26 2.9 16.38 16.38 0 0 0 .3 29.6 16.14 16.14 0 0 0 -1.68 7.21 16.42 16.42 0 0 0 16.4 16.4h1a12.88 12.88 0 0 0 10.24 5 13.31 13.31 0 0 0 12.94-10 2.31 2.31 0 0 0 .05-.46v-6.85h8.64l2.47 3.48a6.72 6.72 0 1 0 4.38-.75l-4.21-5.88a2 2 0 0 0 -1.63-.84h-9.67v-.23-7h18.51l7.88 5.26a6.76 6.76 0 1 0 2.94-2.85l-9.1-6.07a2 2 0 0 0 -1.11-.34h-19.12v-6.93h28.39a6.71 6.71 0 1 0 6.4-8.71zm-2.51-17.29a2.71 2.71 0 1 1 -2.71 2.71 2.72 2.72 0 0 1 2.71-2.71zm-17.9-12.2a2.71 2.71 0 1 1 -2.71 2.71 2.72 2.72 0 0 1 2.71-2.71zm0 72.4a2.71 2.71 0 1 1 2.71-2.71 2.72 2.72 0 0 1 -2.71 2.71zm20.61-14.91a2.71 2.71 0 1 1 -2.71-2.71 2.72 2.72 0 0 1 2.71 2.71zm-39 9.44a9.41 9.41 0 0 1 -9 6.72 9 9 0 0 1 -7.59-4.21 2 2 0 0 0 -1.69-.93h-.28a12.61 12.61 0 0 1 -1.7.14 12.42 12.42 0 0 1 -12.4-12.32 1.92 1.92 0 0 0 0-.22 11.15 11.15 0 0 1 11.18-11.13 2 2 0 0 0 0-4 15.05 15.05 0 0 0 -11 4.78 12.38 12.38 0 0 1 .23-23.24 2 2 0 0 0 1.25-2.45 12.1 12.1 0 0 1 -.48-3.52 12.43 12.43 0 0 1 9.87-12.13 14.17 14.17 0 0 0 .58 6.46 2 2 0 0 0 1.84 1.32 2.09 2.09 0 0 0 .69-.12 2 2 0 0 0 1.18-2.58 12.12 12.12 0 0 1 0-6.46 9.49 9.49 0 0 1 17.33 4.16v14.13a15.07 15.07 0 0 0 -11.14-4.92 2 2 0 0 0 0 4 11.15 11.15 0 0 1 11.14 11.13v14.36a15.11 15.11 0 0 0 -11.14-4.92 2 2 0 1 0 0 4 11.16 11.16 0 0 1 11.14 11.14zm38.79-28a2.71 2.71 0 1 1 2.73-2.73 2.72 2.72 0 0 1 -2.72 2.71z" />
</svg>
