<svg fill="none" height="20" viewBox="0 0 24 24" width="20" xmlns="http://www.w3.org/2000/svg">
  <g fill="currentColor">
    <path
      d="m7 8.75h-3c-1.52 0-2.75-1.23-2.75-2.75v-2c0-1.52 1.23-2.75 2.75-2.75h3c1.52 0 2.75 1.23 2.75 2.75v2c0 1.52-1.23 2.75-2.75 2.75zm-3-6c-.69 0-1.25.56-1.25 1.25v2c0 .69.56 1.25 1.25 1.25h3c.69 0 1.25-.56 1.25-1.25v-2c0-.69-.56-1.25-1.25-1.25z" />
    <path
      d="m20.8 7.75h-3.6c-1.08 0-1.95-.88001-1.95-1.95001v-1.59998c0-1.08.88-1.95001 1.95-1.95001h3.6c1.08 0 1.95.88001 1.95 1.95001v1.59998c0 1.08-.87 1.95001-1.95 1.95001zm-3.6-4c-.24 0-.45.21001-.45.45001v1.59998c0 .24.21.45001.45.45001h3.6c.24 0 .45-.21001.45-.45001v-1.59998c0-.24-.21-.45001-.45-.45001z" />
    <path
      d="m20.8 15.25h-3.6c-1.08 0-1.95-.88-1.95-1.95v-1.6c0-1.08.88-1.95 1.95-1.95h3.6c1.08 0 1.95.88 1.95 1.95v1.6c0 1.08-.87 1.95-1.95 1.95zm-3.6-4c-.24 0-.45.21-.45.45v1.6c0 .24.21.45.45.45h3.6c.24 0 .45-.21.45-.45v-1.6c0-.24-.21-.45-.45-.45z" />
    <path d="m16 5.75h-7c-.41 0-.75-.34-.75-.75s.34-.75.75-.75h7c.41 0 .75.34.75.75s-.34.75-.75.75z" />
    <path
      d="m16 20.75h-1.5c-1.52 0-2.75-1.23-2.75-2.75v-13c0-.41.34-.75.75-.75s.75.34.75.75v13c0 .69.56 1.25 1.25 1.25h1.5c.41 0 .75.34.75.75s-.34.75-.75.75z" />
    <path
      d="m16 13.25h-3.5c-.41 0-.75-.34-.75-.75s.34-.75.75-.75h3.5c.41 0 .75.34.75.75s-.34.75-.75.75z" />
    <path
      d="m20.8 22.75h-3.6c-1.08 0-1.95-.88-1.95-1.95v-1.6c0-1.08.88-1.95 1.95-1.95h3.6c1.08 0 1.95.88 1.95 1.95v1.6c0 1.08-.87 1.95-1.95 1.95zm-3.6-4c-.24 0-.45.21-.45.45v1.6c0 .24.21.45.45.45h3.6c.24 0 .45-.21.45-.45v-1.6c0-.24-.21-.45-.45-.45z" />
  </g>
</svg>
