<svg width="56" height="56" viewBox="0 0 56 56" fill="none" xmlns="http://www.w3.org/2000/svg">
<circle cx="28" cy="28" r="28" fill="#B58000"/>
<path fill-rule="evenodd" clip-rule="evenodd" d="M24.6091 12.6404H30.4659C30.6369 12.6404 30.7756 12.7791 30.7756 12.9501V17.1879C30.7756 17.3589 30.6369 17.4976 30.4659 17.4976H24.6091C24.4381 17.4976 24.2994 17.3589 24.2994 17.1879V12.9501C24.2994 12.7791 24.4381 12.6404 24.6091 12.6404ZM23.0851 12.9501C23.0851 12.1085 23.7675 11.4261 24.6091 11.4261H30.4659C31.3075 11.4261 31.9899 12.1085 31.9899 12.9501V17.1879C31.9899 18.0295 31.3075 18.7119 30.4659 18.7119H24.6091C23.7675 18.7119 23.0851 18.0295 23.0851 17.1879V12.9501ZM25.5092 21.2975C25.1739 21.2975 24.9021 21.5693 24.9021 21.9046V23.3123C24.4127 23.4762 23.9515 23.7033 23.5274 23.9837L22.2365 23.115C22.1001 23.0232 21.9323 22.9907 21.7714 23.0248C21.6106 23.0591 21.4704 23.157 21.3831 23.2963L20.0315 25.4529C19.8575 25.7306 19.9352 26.0962 20.207 26.2791L21.1787 26.9329C21.0057 27.3877 20.8835 27.8687 20.8192 28.3679L19.5426 28.5777C19.2142 28.6316 18.9905 28.9397 19.0408 29.2686L19.4294 31.8083C19.4539 31.9687 19.5416 32.1125 19.6728 32.2078C19.804 32.3031 19.9679 32.342 20.1279 32.3156L21.4681 32.0955C21.572 32.2967 21.6865 32.4913 21.8108 32.6786L20.9255 33.6437C20.7045 33.8846 20.714 34.2573 20.9469 34.4867L22.7458 36.2582C22.8632 36.3738 23.0225 36.4367 23.1873 36.4325C23.352 36.4283 23.5079 36.3574 23.6193 36.2359L24.7419 35.0121C24.7949 35.0316 24.8483 35.0503 24.9021 35.0683V36.4759C24.9021 36.8113 25.1739 37.083 25.5092 37.083H27.991C28.3263 37.083 28.5981 36.8113 28.5981 36.4759V35.0688C28.702 35.034 28.8046 34.9964 28.9058 34.956L30.0798 36.2359C30.1911 36.3574 30.347 36.4283 30.5118 36.4325C30.6765 36.4367 30.8358 36.3738 30.9532 36.2582L32.7521 34.4867C32.985 34.2573 32.9945 33.8846 32.7735 33.6437L31.7724 32.5522C31.8531 32.4237 31.9295 32.292 32.001 32.1573L33.8506 32.3816C34.0113 32.4011 34.1732 32.3556 34.3002 32.2553C34.4272 32.1549 34.5089 32.0079 34.5271 31.8471L34.8157 29.2931C34.8531 28.9619 34.6165 28.6623 34.2855 28.6222L32.6899 28.4286C32.6306 27.9319 32.5143 27.4529 32.3476 26.9993L33.4178 26.2791C33.6896 26.0962 33.7673 25.7307 33.5933 25.453L32.2416 23.2964C32.1543 23.157 32.0142 23.0591 31.8533 23.0249C31.6925 22.9907 31.5246 23.0233 31.3882 23.1151L30.0358 24.0251C29.5945 23.7253 29.1119 23.4838 28.5981 23.3119V21.9046C28.5981 21.5693 28.3263 21.2975 27.991 21.2975H25.5092ZM26.1164 23.768V22.5117H27.3838V23.7677C27.3838 24.0475 27.575 24.291 27.8467 24.3575C28.5079 24.5193 29.1174 24.8247 29.6429 25.2423C29.8501 25.4071 30.14 25.4186 30.3597 25.2708L31.5458 24.4727L32.2522 25.5998L31.2577 26.2691C31.0098 26.4358 30.9201 26.7582 31.0462 27.029C31.3241 27.6261 31.4908 28.2906 31.517 28.9942C31.5281 29.2924 31.7543 29.5383 32.0506 29.5743L33.5414 29.7551L33.3892 31.1025L31.7175 30.8997C31.4519 30.8675 31.1967 31.0128 31.0888 31.2575C30.9334 31.6101 30.7396 31.9403 30.5129 32.2424C30.3375 32.4762 30.3536 32.8018 30.5511 33.0171L31.4825 34.0326L30.5494 34.9515L29.5058 33.8137C29.3234 33.6149 29.0318 33.5603 28.7898 33.6795C28.491 33.8269 28.1752 33.9427 27.8467 34.0231C27.575 34.0896 27.3838 34.3331 27.3838 34.6128V35.8687H26.1164V34.6126C26.1164 34.3329 25.9253 34.0894 25.6537 34.0229C25.3698 33.9533 25.0955 33.8573 24.8334 33.7374C24.594 33.6279 24.3113 33.6851 24.1334 33.8791L23.1496 34.9515L22.2165 34.0326L23.0406 33.1342C23.2422 32.9143 23.2543 32.5804 23.069 32.3466C22.7917 31.9968 22.5595 31.6067 22.3817 31.1858C22.2726 30.9274 22.0008 30.7775 21.724 30.8229L20.5368 31.0179L20.3319 29.6785L21.4797 29.49C21.7616 29.4437 21.9731 29.2072 21.9876 28.9219C22.0233 28.2231 22.1977 27.564 22.4819 26.9729C22.6125 26.701 22.5239 26.3745 22.2736 26.2061L21.3725 25.5998L22.079 24.4726L23.1988 25.2262C23.4159 25.3722 23.7022 25.3628 23.9092 25.2027C24.4227 24.8056 25.014 24.5144 25.6537 24.3578C25.9253 24.2912 26.1164 24.0477 26.1164 23.768ZM24.7004 29.1903C24.7004 27.9609 25.6971 26.9641 26.9266 26.9641C28.1561 26.9641 29.1528 27.9609 29.1528 29.1903C29.1528 30.4198 28.1561 31.4165 26.9266 31.4165C25.6971 31.4165 24.7004 30.4198 24.7004 29.1903ZM26.9266 25.7498C25.0265 25.7498 23.4862 27.2902 23.4862 29.1903C23.4862 31.0904 25.0265 32.6308 26.9266 32.6308C28.8267 32.6308 30.3671 31.0904 30.3671 29.1903C30.3671 27.2902 28.8267 25.7498 26.9266 25.7498ZM17.5259 41.8541C19.0907 41.8541 20.3593 40.5856 20.3593 39.0208C20.3593 37.456 19.0907 36.1874 17.5259 36.1874C15.9611 36.1874 14.6926 37.456 14.6926 39.0208C14.6926 40.5856 15.9611 41.8541 17.5259 41.8541ZM17.5259 43.0684C19.7614 43.0684 21.5736 41.2563 21.5736 39.0208C21.5736 36.7853 19.7614 34.9731 17.5259 34.9731C15.2905 34.9731 13.4783 36.7853 13.4783 39.0208C13.4783 41.2563 15.2905 43.0684 17.5259 43.0684ZM37.7741 33.6749L40.2027 32.3258L42.6312 33.6749V36.2936L40.2027 37.6428L37.7741 36.2936V33.6749ZM39.8325 31.1422C40.0627 31.0143 40.3425 31.0143 40.5727 31.1422L43.4535 32.7427C43.6954 32.8771 43.8455 33.132 43.8455 33.4088V36.5597C43.8455 36.8364 43.6954 37.0914 43.4535 37.2258L40.5727 38.8263C40.3425 38.9541 40.0627 38.9541 39.8325 38.8263L36.9517 37.2258C36.7098 37.0914 36.5598 36.8364 36.5598 36.5597V33.4088C36.5598 33.132 36.7098 32.8771 36.9517 32.7427L39.8325 31.1422ZM20.3191 18.3631C19.9939 18.2813 19.7967 17.9514 19.8784 17.6262L19.9592 17.3048C19.9425 17.315 19.9256 17.3253 19.9089 17.3356C15.984 19.7475 13.3688 24.0791 13.3688 29.021C13.3688 30.6316 13.6463 32.1761 14.1557 33.61C14.268 33.9259 14.1028 34.2731 13.7868 34.3854C13.4709 34.4976 13.1237 34.3324 13.0115 34.0165C12.4564 32.4539 12.1545 30.772 12.1545 29.021C12.1545 23.6398 15.0038 18.9247 19.2731 16.301C19.2963 16.2868 19.3195 16.2726 19.3428 16.2585L19.0102 16.1749C18.685 16.0932 18.4877 15.7633 18.5694 15.4381C18.6512 15.1129 18.9811 14.9155 19.3063 14.9973L21.055 15.4369C21.2111 15.4762 21.3453 15.5758 21.4279 15.714C21.5107 15.8522 21.535 16.0176 21.4958 16.1738L21.056 17.9223C20.9743 18.2475 20.6444 18.4448 20.3191 18.3631ZM40.3421 27.7737C40.0812 27.5631 39.699 27.6038 39.4883 27.8647C39.2776 28.1256 39.3184 28.5079 39.5792 28.7185L40.9821 29.8512C41.1073 29.9523 41.2677 29.9996 41.4278 29.9825C41.5879 29.9654 41.7347 29.8855 41.8359 29.7602L42.9686 28.3572C43.1792 28.0963 43.1384 27.7141 42.8775 27.5034C42.6167 27.2928 42.2344 27.3336 42.0238 27.5945L41.9362 27.7029C41.5135 22.8757 38.7919 18.7081 34.8749 16.301C34.6395 16.1563 34.3997 16.018 34.1558 15.8862C33.8608 15.7268 33.4925 15.8368 33.3331 16.1318C33.1737 16.4268 33.2837 16.7952 33.5786 16.9546C33.8026 17.0756 34.0229 17.2027 34.2392 17.3356C37.9189 19.5969 40.4475 23.5454 40.749 28.1023L40.3421 27.7737ZM24.4314 41.0829C24.6311 41.3522 24.5746 41.7324 24.3053 41.9321L23.7913 42.3133C23.845 42.3325 23.8963 42.3507 23.9446 42.3676C24.9491 42.6021 25.9967 42.7263 27.074 42.7263C29.7016 42.7263 32.1548 41.9875 34.2392 40.7065C35.0166 40.2288 35.7428 39.6756 36.4075 39.057C36.6531 38.8287 37.0372 38.8425 37.2656 39.088C37.4941 39.3335 37.4802 39.7176 37.2347 39.9461C36.5115 40.619 35.7212 41.2211 34.8749 41.7411C32.6048 43.1362 29.9324 43.9406 27.074 43.9406C26.0496 43.9406 25.0488 43.8373 24.0815 43.6403C24.2517 43.9067 24.189 44.2632 23.9312 44.4544C23.6619 44.6541 23.2816 44.5977 23.0819 44.3283L22.0077 42.8801C21.9118 42.7508 21.8712 42.5887 21.8949 42.4293C21.9185 42.27 22.0044 42.1267 22.1338 42.0307L23.582 40.9568C23.8513 40.757 24.2316 40.8135 24.4314 41.0829Z" fill="white"/>
</svg>
