<?xml version="1.0" encoding="UTF-8" standalone="no"?>
<svg
   height="12"
   viewBox="0 -960 960 960"
   width="12"
   fill="#ffffff"
   version="1.1"
   id="svg488"
   xmlns="http://www.w3.org/2000/svg">
  <defs
     id="defs492" />
  <rect
     style="fill:#33b8f1;fill-opacity:1;stroke:none;stroke-width:16.0727;stroke-linecap:round;stroke-linejoin:round"
     id="rect808"
     width="960"
     height="960"
     x="0"
     y="-960"
     rx="142.60156"
     ry="140.90714" />
  <path
     d="m 444.74344,-232.06728 v -206.5154 l -191.83581,-104.7651 v 206.51539 z m 63.94526,0 191.83581,-104.76511 v -206.51539 l -191.83581,104.7651 z m -31.97263,-258.5211 189.43786,-103.25769 -189.43786,-103.2577 -189.43786,103.2577 z M 220.935,-284.07298 q -15.187,-8.29077 -23.57982,-21.85747 -8.39282,-13.56671 -8.39282,-30.14824 v -239.67844 q 0,-16.58153 8.39282,-30.14824 8.39282,-13.5667 23.57982,-21.85747 l 223.80844,-121.34663 q 15.187,-8.29077 31.97263,-8.29077 16.78563,0 31.97263,8.29077 l 223.80844,121.34663 q 15.187,8.29077 23.57982,21.85747 8.39282,13.56671 8.39282,30.14824 v 239.67844 q 0,16.58153 -8.39282,30.14824 -8.39282,13.5667 -23.57982,21.85747 L 508.6887,-162.72635 q -15.187,8.29077 -31.97263,8.29077 -16.78563,0 -31.97263,-8.29077 z m 255.78107,-171.84493 z"
     id="path486"
     style="fill:#ffffff;fill-opacity:1;stroke-width:0.776176" />
</svg>
