<svg id="svg8" height="20" viewBox="0 0 16.933333 16.933334" width="20" fill="var(--black)"
>
  <g id="layer6" stroke-linejoin="round">
    <path id="path1163"
      d="m2.1171875 4.7617187c-.9191112 0-1.39696237.4814251-1.62695312.9414063-.22999076.4599812-.22656251.9121094-.2265625.9121094v5.5546876s-.003428.452128.2265625.912109c.22999073.459982.70614322.941406 1.62695312.941407h6.1328125v-.529297h-6.1328125c-.666247 0-.9854598-.31467-1.15234375-.648438-.16688394-.333768-.171875-.675781-.171875-.675781v-5.5546876s.004991-.3420137.171875-.6757813c.16688395-.3337676.48670295-.6484375 1.15234375-.6484375h7.4082031c.6656714 0 .9854604.3146699 1.1523434.6484375.166884.3337676.169922.6757813.169922.6757813v1.4570312h.529297v-1.4570312s.0034-.4521282-.226562-.9121094c-.229991-.4599812-.709427-.9414063-1.6250004-.9414063z" />
    <path id="path1165"
      d="m12.169922 7.6738281c-2.4809954-.0000005-4.4960933 2.0150985-4.4960939 4.4960939.0000006 2.480995 2.0150984 4.498047 4.4960939 4.498047 2.480995 0 4.498046-2.017052 4.498047-4.498047-.000001-2.4809951-2.017052-4.4960939-4.498047-4.4960939zm0 .5273438c2.195012-.0000001 3.968749 1.7737377 3.96875 3.9687501-.000001 2.195012-1.773738 3.96875-3.96875 3.96875-2.1950127 0-3.9687497-1.773738-3.9687501-3.96875.0000005-2.1950127 1.7737374-3.9687506 3.9687501-3.9687501z"
      stroke-linecap="round" />
    <path id="path1167"
      d="m12.169922 8.9960938c-.873617-.0000008-1.585937.7142741-1.585938 1.5878902.000001.873617.712321 1.585939 1.585938 1.585938.873616 0 1.58789-.712321 1.587891-1.585938-.000001-.8736157-.714275-1.5878904-1.587891-1.5878902zm0 .5292968c.587634-.0000001 1.058593.4709598 1.058594 1.0585934-.000001.587635-.47096 1.058594-1.058594 1.058594-.587635.000001-1.05664-.470959-1.056641-1.058594.000001-.5876339.469007-1.0585939 1.056641-1.0585934z"
      stroke-linecap="round" />
    <path id="path1169"
      d="m12.169922 12.699219c-1.458117 0-2.6445303 1.188368-2.6445314 2.646484v.265625h.5292974v-.265625c0-1.172133.943099-2.117187 2.115234-2.117187s2.117186.945053 2.117187 2.117187v.265625h.529297v-.265625c-.000002-1.458116-1.188367-2.646484-2.646484-2.646484z" />
    <path id="path1171"
      d="m5.8203125.265625c-2.0347923 0-3.703125 1.6683328-3.703125 3.703125v1.0585937h.5292969v-1.0585937c0-1.745656 1.428172-3.17578125 3.1738281-3.17578125 1.7456551.0000006 3.1757813 1.43012565 3.1757813 3.17578125v1.0585937h.5292968v-1.0585937c0-2.0347918-1.6702868-3.7031243-3.7050781-3.703125z" />
    <path id="path1173"
      d="m5.8203125 1.8535156c-1.1722711 0-2.1152344.9429634-2.1152344 2.1152344v1.0585937h.5292969v-1.0585937c0-.8922833.6936541-1.5878906 1.5859375-1.5878906.8922832.0000003 1.5878906.6956074 1.5878906 1.5878906v1.0585937h.5292969v-1.0585937c0-1.1722709-.9449168-2.1152339-2.1171875-2.1152344z" />
    <path id="path1175"
      d="m7.8222656 6.890625c-.2774299-.0396016-.5588703.0332123-.7832031.2011719l-2.1601563 1.6210937-.4921875-.9824219c-.2597726-.5213552-.9012437-.73583-1.4218749-.4746093-.5189073.2606954-.7305563.9005923-.4707032 1.4199219l1.0585938 2.1171877c.2933964.584792 1.056488.763416 1.5800781.371094l3.1757813-2.3808599c.4649219-.349049.5599866-1.0155468.2109375-1.4804687-.1687943-.224212-.4193617-.3729695-.6972657-.4121094zm-.074219.5234375c.139103.019591.2651205.09285.3496094.2050781.1773468.2362201.1307514.5648407-.1054688.7421875l-3.175781 2.3808599c-.2681759.200942-.6407418.112023-.7910156-.1875l-1.0585937-2.117188c-.1320194-.2638474-.0273047-.5765371.2363281-.7089844.2645537-.1327367.5789366-.0285935.7109375.2363281a.26460996.26460996 0 0 0 0 .00195l.6328125 1.265625a.26460996.26460996 0 0 0 .3945312.091797l2.4140625-1.8105438c.1122877-.0840706.2537133-.1194316.3925782-.0996094z"
      stroke-linecap="round" />
  </g>
</svg>
