<svg width="14" height="14" viewBox="0 0 14 12" fill="none" xmlns="http://www.w3.org/2000/svg">
<path d="M5.75169 1.16667C5.30922 1.16667 4.88487 1.34244 4.572 1.65532C4.25912 1.96819 4.08335 2.39254 4.08335 2.83501V3.815H6.58585C6.81335 3.815 7.00002 4.1475 7.00002 4.375H2.83502C2.39255 4.375 1.9682 4.55078 1.65533 4.86365C1.34246 5.17652 1.16669 5.60087 1.16669 6.04334V8.24892C1.16669 8.69139 1.34246 9.11574 1.65533 9.42861C1.9682 9.74148 2.39255 9.91725 2.83502 9.91725H3.52335V8.35392C3.52259 8.13511 3.56502 7.9183 3.64823 7.71592C3.73143 7.51354 3.85377 7.32958 4.00822 7.17458C4.16268 7.01959 4.34621 6.89661 4.54829 6.81269C4.75038 6.72878 4.96704 6.68559 5.18585 6.68559H8.24835C9.17002 6.68559 9.91669 5.94417 9.91669 5.0225V2.83501C9.91669 2.39254 9.74092 1.96819 9.42804 1.65532C9.11517 1.34244 8.69082 1.16667 8.24835 1.16667H5.75169ZM5.33169 2.10584C5.56502 2.10584 5.75169 2.17584 5.75169 2.52001C5.75169 2.86417 5.56502 3.03976 5.33169 3.03976C5.10419 3.03976 4.91752 2.86476 4.91752 2.52059C4.91752 2.17642 5.10419 2.10584 5.33169 2.10584Z" fill="#3C78AA"/>
<path d="M10.4761 4.08333V5.64666C10.4768 5.86543 10.4343 6.08218 10.351 6.28449C10.2678 6.4868 10.1454 6.67069 9.99099 6.82562C9.83654 6.98056 9.65304 7.10348 9.45099 7.18736C9.24894 7.27124 9.03233 7.31441 8.81356 7.31441H5.75165C5.53283 7.31364 5.31602 7.35608 5.11364 7.43928C4.91127 7.52249 4.7273 7.64483 4.57231 7.79928C4.41731 7.95373 4.29433 8.13727 4.21042 8.33935C4.12651 8.54144 4.08331 8.7581 4.08331 8.97691V11.1644C4.08331 11.6069 4.25908 12.0312 4.57196 12.3441C4.88483 12.657 5.30918 12.8327 5.75165 12.8327H8.24831C8.69068 12.8327 9.11494 12.6571 9.4278 12.3443C9.74065 12.0316 9.91649 11.6074 9.91665 11.165V10.185H7.41356C7.18606 10.185 6.99998 9.8525 6.99998 9.625H11.165C11.6074 9.625 12.0318 9.44923 12.3447 9.13635C12.6575 8.82348 12.8333 8.39913 12.8333 7.95666V5.75166C12.8333 5.30919 12.6575 4.88485 12.3447 4.57197C12.0318 4.2591 11.6074 4.08333 11.165 4.08333H10.4761ZM4.85331 6.71591L4.85098 6.71825C4.85798 6.71708 4.86556 6.71766 4.87315 6.71591H4.85331ZM8.66831 10.9602C8.89581 10.9602 9.08248 11.1352 9.08248 11.4794C9.08248 11.5338 9.07177 11.5877 9.05095 11.6379C9.03014 11.6882 8.99963 11.7338 8.96117 11.7723C8.92271 11.8107 8.87706 11.8412 8.82681 11.8621C8.77656 11.8829 8.7227 11.8936 8.66831 11.8936C8.43498 11.8936 8.24831 11.8236 8.24831 11.4794C8.24831 11.1352 8.43498 10.9602 8.66831 10.9602Z" fill="#FDD835"/>
</svg>
