<svg id="Layer_1" enable-background="new 0 0 512 512" height="20" viewBox="0 0 512 512" width="20" fill="var(--black)"
  xmlns="http://www.w3.org/2000/svg">
  <path
    d="m506.48 279.04-25.38-8.24c-3.13-11.94-7.86-23.35-14.11-34.03l12.12-23.78c1.57-3.09.98-6.84-1.47-9.3l-27.1-27.1c-2.45-2.45-6.21-3.05-9.29-1.47l-23.78 12.12c-10.69-6.24-22.1-10.97-34.03-14.11l-8.24-25.35c-1.07-3.3-4.15-5.53-7.62-5.53h-38.32c-3.47 0-6.54 2.23-7.62 5.53l-8.25 25.35c-11.93 3.14-23.34 7.87-34.02 14.11l-23.77-12.12c-3.09-1.58-6.85-.98-9.3 1.47l-27.1 27.1c-2.45 2.45-3.05 6.21-1.47 9.3l8.85 17.4c-3.59-.33-7.23-.5-10.9-.5h-95.9c-66.05 0-119.78 53.73-119.78 119.78v94.73c0 13.79 11.22 25.02 25.02 25.02h285.38c4.5 0 8.73-1.2 12.38-3.29 1.48 2.03 3.86 3.29 6.47 3.29h38.32c3.47 0 6.54-2.23 7.62-5.53l8.24-25.35c11.94-3.13 23.35-7.86 34.04-14.11l23.78 12.12c3.09 1.57 6.84.98 9.3-1.47l27.1-27.1c2.45-2.45 3.05-6.21 1.47-9.3l-12.12-23.78c6.24-10.68 10.97-22.09 14.11-34.03l25.38-8.24c3.3-1.07 5.53-4.15 5.53-7.62v-38.35c-.01-3.47-2.24-6.55-5.54-7.62zm-321.1 63.18-17.68 31.32-17.67-31.32 8.98-96.31h17.41zm125.02 111.18h-53.05v-58.89c0-4.42-3.58-8.01-8.01-8.01s-8.01 3.58-8.01 8.01v58.89h-147.26v-58.89c0-4.42-3.58-8.01-8.01-8.01s-8.01 3.58-8.01 8.01v58.89h-53.05c-4.96 0-9-4.04-9-9v-94.73c0-57.22 46.55-103.76 103.76-103.76h23.16l-9.08 97.32c-.15 1.63.2 3.26 1 4.68l25.88 45.87c1.42 2.52 4.08 4.07 6.97 4.07s5.55-1.56 6.97-4.07l25.88-45.87c.8-1.42 1.15-3.05 1-4.68l-9.05-97.32h23.16c23.69 0 45.54 7.99 63.03 21.41.34.35.72.67 1.14.96.14.1.28.18.42.26 23.84 19.03 39.15 48.33 39.15 81.14v94.73c.01 4.96-4.03 8.99-8.99 8.99zm-14.95-192.97c13.19-15.38 32.5-24.39 52.96-24.39 38.47 0 69.78 31.3 69.78 69.77 0 38.49-31.3 69.8-69.78 69.8-4.35 0-8.7-.42-13-1.24v-24.71c0-35.41-15.45-67.28-39.96-89.23zm200.55 58.76-24.08 7.81c-2.69.87-4.72 3.09-5.35 5.85-3.01 13.28-8.23 25.88-15.52 37.44-1.51 2.39-1.64 5.4-.36 7.91l11.5 22.56-18.87 18.87-22.56-11.5c-2.52-1.29-5.52-1.15-7.91.36-11.56 7.29-24.16 12.51-37.44 15.52-2.75.63-4.98 2.65-5.85 5.34l-7.81 24.05h-26.69l-.65-2.01c.65-2.22 1-4.56 1-6.99v-53.77c4.3.66 8.65 1.01 13 1.01 47.31 0 85.79-38.5 85.79-85.82 0-47.3-38.49-85.79-85.79-85.79-25.41 0-49.36 11.28-65.59 30.52-11.01-7.49-23.34-13.19-36.54-16.69-.06-.13-.11-.26-.17-.39l-11.48-22.58 18.87-18.87 22.57 11.5c2.52 1.28 5.52 1.14 7.9-.36 11.56-7.28 24.15-12.51 37.42-15.52 2.75-.62 4.96-2.64 5.84-5.32l7.84-24.07h26.69l7.81 24.05c.87 2.69 3.09 4.72 5.85 5.34 13.28 3.01 25.88 8.23 37.44 15.52 2.39 1.51 5.4 1.64 7.91.36l22.56-11.5 18.87 18.87-11.5 22.56c-1.28 2.52-1.15 5.52.36 7.91 7.29 11.56 12.51 24.16 15.52 37.44.63 2.76 2.66 4.98 5.35 5.85l24.08 7.81v26.73zm-328.3-102.79c47.92 0 86.9-38.99 86.9-86.92 0-47.92-38.98-86.9-86.9-86.9-47.91 0-86.9 38.98-86.9 86.9 0 47.93 38.99 86.92 86.9 86.92zm0-157.8c39.08 0 70.88 31.8 70.88 70.88 0 39.1-31.8 70.91-70.88 70.91s-70.88-31.81-70.88-70.91c0-39.09 31.8-70.88 70.88-70.88z" />
</svg>
