<?xml version="1.0" encoding="UTF-8" standalone="no"?>
<!-- Created with Inkscape (http://www.inkscape.org/) -->

<svg
   version="1.1"
   id="svg2970"
   xml:space="preserve"
   width="682.66669"
   height="682.66669"
   viewBox="0 0 682.66669 682.66669"
   xmlns="http://www.w3.org/2000/svg"
   xmlns:svg="http://www.w3.org/2000/svg"><defs
     id="defs2974"><clipPath
       clipPathUnits="userSpaceOnUse"
       id="clipPath2988"><path
         d="M 0,512 H 512 V 0 H 0 Z"
         id="path2986" /></clipPath></defs><g
     id="g2976"
     transform="matrix(1.3333333,0,0,-1.3333333,0,682.66667)"><g
       id="g2978"
       transform="translate(429.3066,111.2529)"><path
         d="M 0,0 -27.505,-27.507 0,-55.013"
         style="fill:none;stroke:#000000;stroke-width:20;stroke-linecap:round;stroke-linejoin:round;stroke-miterlimit:10;stroke-dasharray:none;stroke-opacity:1"
         id="path2980" /></g><g
       id="g2982"><g
         id="g2984"
         clip-path="url(#clipPath2988)"><g
           id="g2990"
           transform="translate(57.3398,111.2529)"><path
             d="M 0,0 -27.506,-27.507 0,-55.014"
             style="fill:none;stroke:#000000;stroke-width:20;stroke-linecap:round;stroke-linejoin:round;stroke-miterlimit:10;stroke-dasharray:none;stroke-opacity:1"
             id="path2992" /></g><g
           id="g2994"
           transform="translate(324.791,191.792)"><path
             d="m 0,0 h -138.309 c -19.506,0 -35.32,15.813 -35.32,35.319 v 57.4 c 0,19.507 15.814,35.319 35.32,35.319 H 0 c 19.507,0 35.32,-15.812 35.32,-35.319 v -57.4 C 35.32,15.813 19.507,0 0,0 Z"
             style="fill:none;stroke:#000000;stroke-width:20;stroke-linecap:round;stroke-linejoin:round;stroke-miterlimit:10;stroke-dasharray:none;stroke-opacity:1"
             id="path2996" /></g><g
           id="g2998"
           transform="translate(324.791,19.7266)"><path
             d="m 0,0 h -138.309 c -19.506,0 -35.32,15.813 -35.32,35.32 v 57.399 c 0,19.507 15.814,35.32 35.32,35.32 H 0 c 19.507,0 35.32,-15.813 35.32,-35.32 V 35.32 C 35.32,15.813 19.507,0 0,0 Z"
             style="fill:none;stroke:#000000;stroke-width:20;stroke-linecap:round;stroke-linejoin:round;stroke-miterlimit:10;stroke-dasharray:none;stroke-opacity:1"
             id="path3000" /></g><g
           id="g3002"
           transform="translate(212.8896,492.2734)"><path
             d="m 0,0 h -26.407 c -19.507,0 -35.321,-15.813 -35.321,-35.32 v -57.399 c 0,-19.507 15.814,-35.32 35.321,-35.32 h 138.308 c 19.507,0 35.321,15.813 35.321,35.32 V -35.32 C 147.222,-15.813 131.408,0 111.901,0 H 88.106"
             style="fill:none;stroke:#000000;stroke-width:20;stroke-linecap:round;stroke-linejoin:round;stroke-miterlimit:10;stroke-dasharray:none;stroke-opacity:1"
             id="path3004" /></g><g
           id="g3006"
           transform="translate(401.8018,255.8115)"><path
             d="m 0,0 h 31.166 c 38.126,0 69.032,-30.907 69.032,-69.032 v -34.002 c 0,-38.125 -30.906,-69.031 -69.032,-69.031 H 0"
             style="fill:none;stroke:#000000;stroke-width:20;stroke-linecap:round;stroke-linejoin:round;stroke-miterlimit:10;stroke-dasharray:none;stroke-opacity:1"
             id="path3008" /></g><g
           id="g3010"
           transform="translate(82.6934,282.0684)"><path
             d="M 0,0 27.505,-27.507 0,-55.014"
             style="fill:none;stroke:#000000;stroke-width:20;stroke-linecap:round;stroke-linejoin:round;stroke-miterlimit:10;stroke-dasharray:none;stroke-opacity:1"
             id="path3012" /></g><g
           id="g3014"
           transform="translate(110.1982,426.626)"><path
             d="m 0,0 h -31.166 c -38.126,0 -69.032,-30.906 -69.032,-69.031 v -34.002 c 0,-38.125 30.906,-69.031 69.032,-69.031 H 0"
             style="fill:none;stroke:#000000;stroke-width:20;stroke-linecap:round;stroke-linejoin:round;stroke-miterlimit:10;stroke-dasharray:none;stroke-opacity:1"
             id="path3016" /></g><g
           id="g3018"
           transform="translate(29.834,83.7461)"><path
             d="M 0,0 H 80.561"
             style="fill:none;stroke:#000000;stroke-width:20;stroke-linecap:round;stroke-linejoin:round;stroke-miterlimit:10;stroke-dasharray:none;stroke-opacity:1"
             id="path3020" /></g><g
           id="g3022"
           transform="translate(429.1123,460.9766)"><path
             d="M 0,0 -27.507,-27.506 0,-55.013"
             style="fill:none;stroke:#000000;stroke-width:20;stroke-linecap:round;stroke-linejoin:round;stroke-miterlimit:10;stroke-dasharray:none;stroke-opacity:1"
             id="path3024" /></g><g
           id="g3026"
           transform="translate(401.6055,433.4707)"><path
             d="M 0,0 H 80.561"
             style="fill:none;stroke:#000000;stroke-width:20;stroke-linecap:round;stroke-linejoin:round;stroke-miterlimit:10;stroke-dasharray:none;stroke-opacity:1"
             id="path3028" /></g><g
           id="g3030"
           transform="translate(200.7217,428.2539)"><path
             d="M 0,0 H 110.986"
             style="fill:none;stroke:#000000;stroke-width:20;stroke-linecap:round;stroke-linejoin:round;stroke-miterlimit:10;stroke-dasharray:none;stroke-opacity:1"
             id="path3032" /></g><g
           id="g3034"
           transform="translate(200.7217,255.8115)"><path
             d="M 0,0 H 67.168"
             style="fill:none;stroke:#000000;stroke-width:20;stroke-linecap:round;stroke-linejoin:round;stroke-miterlimit:10;stroke-dasharray:none;stroke-opacity:1"
             id="path3036" /></g><g
           id="g3038"
           transform="translate(200.7217,83.3682)"><path
             d="M 0,0 H 110.986"
             style="fill:none;stroke:#000000;stroke-width:20;stroke-linecap:round;stroke-linejoin:round;stroke-miterlimit:10;stroke-dasharray:none;stroke-opacity:1"
             id="path3040" /></g><g
           id="g3042"
           transform="translate(311.708,255.8818)"><path
             d="M 0,0 V 0"
             style="fill:none;stroke:#000000;stroke-width:20;stroke-linecap:round;stroke-linejoin:round;stroke-miterlimit:10;stroke-dasharray:none;stroke-opacity:1"
             id="path3044" /></g><g
           id="g3046"
           transform="translate(257.5117,492.2734)"><path
             d="M 0,0 V 0"
             style="fill:none;stroke:#000000;stroke-width:20;stroke-linecap:round;stroke-linejoin:round;stroke-miterlimit:10;stroke-dasharray:none;stroke-opacity:1"
             id="path3048" /></g></g></g></g></svg>
