<svg width="20" height="20" viewBox="0 0 20 20" fill="none" xmlns="http://www.w3.org/2000/svg">
  <path fill-rule="evenodd" clip-rule="evenodd" d="M6.67593 10.3601C6.58647 10.6487 6.39235 10.9052 6.10647 11.0691L1.87196 13.5047C1.27388 13.8472 0.511965 13.6441 0.168706 13.0517C-0.176725 12.4559 0.0265973 11.698 0.624169 11.3545L2.99069 9.99577L0.624169 8.63348C0.0265973 8.29044 -0.177748 7.53239 0.168706 6.93881C0.511965 6.34484 1.27388 6.14112 1.87196 6.48364L6.10647 8.91764C6.40423 9.08865 6.60321 9.35985 6.68679 9.66312C6.7149 9.76062 6.72743 9.85811 6.73228 9.95613C6.73561 10.0911 6.71823 10.2278 6.67593 10.3601ZM7.82493 12.6412C8.46979 12.6874 8.97893 13.2244 8.97893 13.8777V18.7474C8.97893 19.4341 8.41931 19.99 7.73228 19.99C7.04193 19.99 6.48449 19.4341 6.48449 18.7474V16.0237L4.10992 17.3867C3.51452 17.7319 2.75311 17.5276 2.40717 16.9347C2.0634 16.3406 2.26672 15.5788 2.86327 15.2358L7.1011 12.8033C7.32883 12.6711 7.58148 12.6204 7.82493 12.6412ZM12.1653 7.34894C11.5189 7.30147 11.0107 6.76357 11.0107 6.11071V1.24041C11.0107 0.555997 11.5672 0 12.258 0C12.9483 0 13.5058 0.555997 13.5058 1.24041V3.96575L15.8787 2.60064C16.4753 2.2576 17.2371 2.46119 17.581 3.05427C17.9241 3.65055 17.7219 4.40898 17.1249 4.75202L12.8876 7.18666C12.6598 7.31725 12.4077 7.36844 12.1653 7.34894ZM2.86327 4.75202C2.26672 4.40898 2.0634 3.65055 2.40717 3.05427C2.75311 2.46119 3.51452 2.2576 4.10992 2.60064L6.48449 3.96575V1.24041C6.48449 0.555997 7.04193 0 7.73228 0C8.41931 0 8.97893 0.555997 8.97893 1.24041V6.11071C8.97893 6.76357 8.46979 7.30147 7.82493 7.34894C7.58148 7.36844 7.32883 7.31725 7.1011 7.18666L2.86327 4.75202ZM10.474 12.2224C10.4235 12.2741 10.3264 12.3161 10.2527 12.3161H9.73484C9.66378 12.3161 9.56513 12.2741 9.51363 12.2224L7.75337 10.4717C7.70302 10.4222 7.66225 10.323 7.66225 10.2534V9.73662C7.66225 9.6653 7.70302 9.56626 7.75337 9.5161L9.51363 7.76485C9.56513 7.71379 9.66378 7.67287 9.73484 7.67287H10.2527C10.3249 7.67287 10.4235 7.71379 10.474 7.76485L12.2353 9.5161C12.2856 9.56626 12.3263 9.6653 12.3263 9.73662V10.2534C12.3263 10.323 12.2856 10.4222 12.2353 10.4717L10.474 12.2224ZM10.8275 9.9855C10.8275 9.91469 10.7847 9.81616 10.7342 9.76382L10.2239 9.2585C10.1741 9.20847 10.0749 9.16703 10.0038 9.16703H9.98378C9.91273 9.16703 9.81407 9.20847 9.76462 9.2585L9.25446 9.76382C9.20347 9.81616 9.16436 9.91469 9.16436 9.9855V10.0056C9.16436 10.0753 9.20347 10.1728 9.25446 10.224L9.76462 10.7303C9.81458 10.7805 9.91273 10.8218 9.98378 10.8218H10.0038C10.0749 10.8218 10.1741 10.7805 10.2239 10.7303L10.7342 10.224C10.7847 10.1728 10.8275 10.0753 10.8275 10.0056V9.9855ZM17.1249 15.2358C17.7219 15.5788 17.9241 16.3406 17.581 16.9347C17.2371 17.5276 16.4746 17.7319 15.8787 17.3867L13.5058 16.0237V18.7474C13.5058 19.4341 12.9483 19.99 12.258 19.99C11.5672 19.99 11.0107 19.4341 11.0107 18.7474V13.8777C11.0107 13.2244 11.5189 12.6874 12.1653 12.6412C12.4077 12.6204 12.6598 12.6711 12.8876 12.8033L17.1249 15.2358ZM16.9985 9.99577L19.365 11.3545C19.9626 11.698 20.167 12.4559 19.8216 13.0517C19.4767 13.6441 18.7138 13.8472 18.1184 13.5047L13.8805 11.0691C13.5975 10.9052 13.4017 10.6487 13.3144 10.3601C13.2731 10.2278 13.2536 10.0911 13.2585 9.95613C13.2607 9.85811 13.2753 9.76062 13.3024 9.66312C13.387 9.35985 13.5861 9.08865 13.8805 8.91764L18.1184 6.48364C18.7138 6.14112 19.4767 6.34484 19.8216 6.93881C20.167 7.53239 19.9626 8.29044 19.365 8.63348L16.9985 9.99577Z" fill="#29B5E8"/>
  </svg>
