<svg enable-background="new 0 0 512 512" height="512" viewBox="0 0 512 512" width="512" xmlns="http://www.w3.org/2000/svg"><g id="_x31_29_x2C__sql_x2C__file_type_x2C__file_format_x2C__file_extension_x2C__document"><g id="XMLID_1_"><g id="XMLID_2795_"><path id="XMLID_2491_" d="m391 426h-300.667c-29.959 0-54.333-24.374-54.333-54.333v-155.667c0-5.523 4.478-10 10-10s10 4.477 10 10v155.667c0 18.931 15.401 34.333 34.333 34.333h300.667c8.272 0 15-6.729 15-15v-120c0-8.271-6.728-15-15-15h-264.999c-5.522 0-10-4.477-10-10s4.478-10 10-10h264.999c19.299 0 35 15.701 35 35v120c0 19.299-15.701 35-35 35z"/></g><g id="XMLID_2793_"><path id="XMLID_2490_" d="m126 256h-50c-22.056 0-40-17.944-40-40s17.944-40 40-40h50c5.523 0 10 4.477 10 10s-4.477 10-10 10h-50c-11.028 0-20 8.972-20 20s8.972 20 20 20h50c5.523 0 10 4.477 10 10s-4.477 10-10 10z"/></g><g id="XMLID_2791_"><path id="XMLID_2489_" d="m436 496h-280c-22.056 0-40-17.944-40-40v-40c0-5.523 4.478-10 10-10 5.523 0 10 4.477 10 10v40c0 11.028 8.972 20 20 20h280c11.028 0 20-8.972 20-20v-345.858l-74.143-74.142h-225.857c-11.028 0-20 8.972-20 20v189.999c0 5.523-4.477 10-10 10-5.522 0-10-4.477-10-10v-189.999c0-22.056 17.944-40 40-40h230c2.652 0 5.195 1.054 7.071 2.929l80 80c1.875 1.875 2.929 4.419 2.929 7.071v350c0 22.056-17.944 40-40 40z"/></g><g id="XMLID_2789_"><path id="XMLID_2488_" d="m456 116h-70c-5.522 0-10-4.477-10-10v-70c0-5.523 4.478-10 10-10s10 4.477 10 10v60h60c5.522 0 10 4.477 10 10s-4.478 10-10 10z"/></g><g id="XMLID_2787_"><path id="XMLID_2487_" d="m256 106h-80c-5.523 0-10-4.477-10-10s4.477-10 10-10h80c5.522 0 10 4.477 10 10s-4.478 10-10 10z"/></g><g id="XMLID_2785_"><path id="XMLID_2486_" d="m336 146h-160c-5.523 0-10-4.477-10-10s4.477-10 10-10h160c5.522 0 10 4.477 10 10s-4.478 10-10 10z"/></g><g id="XMLID_2180_"><path id="XMLID_2485_" d="m336 186h-160c-5.523 0-10-4.477-10-10s4.477-10 10-10h160c5.522 0 10 4.477 10 10s-4.478 10-10 10z"/></g><g id="XMLID_8_"><path id="XMLID_2159_" d="m231 376c-19.299 0-35-15.701-35-35v-30c0-19.299 15.701-35 35-35s35 15.701 35 35v30c0 19.299-15.701 35-35 35zm0-80c-8.271 0-15 6.729-15 15v30c0 8.271 6.729 15 15 15s15-6.729 15-15v-30c0-8.271-6.729-15-15-15z"/></g><g id="XMLID_6_"><path id="XMLID_2482_" d="m263.253 385.615-35-10c-5.311-1.517-8.386-7.052-6.868-12.362s7.052-8.385 12.362-6.868l35 10c5.31 1.517 8.386 7.052 6.868 12.362-1.513 5.296-7.038 8.389-12.362 6.868z"/></g><g id="XMLID_4_"><path id="XMLID_2481_" d="m356 376h-50c-5.522 0-10-4.477-10-10v-80c0-5.523 4.478-10 10-10s10 4.477 10 10v70h40c5.522 0 10 4.477 10 10s-4.478 10-10 10z"/></g><g id="XMLID_2_"><path id="XMLID_2480_" d="m146 376h-30c-5.522 0-10-4.477-10-10s4.478-10 10-10h30c5.514 0 10-4.486 10-10s-4.486-10-10-10h-10c-16.542 0-30-13.458-30-30s13.458-30 30-30h30c5.523 0 10 4.477 10 10s-4.477 10-10 10h-30c-5.514 0-10 4.486-10 10s4.486 10 10 10h10c16.542 0 30 13.458 30 30s-13.458 30-30 30z"/></g></g></g></svg>
