<svg width="132" height="132" viewBox="0 0 132 132" fill="none" xmlns="http://www.w3.org/2000/svg">
  <path d="M118.594 110.344H29.9062C26.4949 110.344 23.7188 107.568 23.7188 104.156V43.3125C23.7188 42.7433 24.1808 42.2812 24.75 42.2812H123.75C124.319 42.2812 124.781 42.7433 124.781 43.3125V104.156C124.781 107.568 122.005 110.344 118.594 110.344ZM25.7812 44.3438V104.156C25.7812 106.431 27.6313 108.281 29.9062 108.281H118.594C120.869 108.281 122.719 106.431 122.719 104.156V44.3438H25.7812Z" fill="#3D6182"/>
  <path d="M49.5 110.344C48.9308 110.344 48.4688 109.882 48.4688 109.312V43.3125C48.4688 42.7433 48.9308 42.2812 49.5 42.2812C50.0692 42.2812 50.5312 42.7433 50.5312 43.3125V109.312C50.5312 109.882 50.0692 110.344 49.5 110.344Z" fill="#3D6182"/>
  <path d="M118.594 26.8125H74.25V43.3125H123.75V31.9688C123.75 29.1204 121.442 26.8125 118.594 26.8125Z" fill="#00A6ED"/>
  <path d="M123.75 44.3438H74.25C73.6808 44.3438 73.2188 43.8818 73.2188 43.3125V26.8125C73.2188 26.2433 73.6808 25.7812 74.25 25.7812H118.594C122.005 25.7812 124.781 28.5574 124.781 31.9688V43.3125C124.781 43.8818 124.319 44.3438 123.75 44.3438ZM75.2812 42.2812H122.719V31.9688C122.719 29.6938 120.869 27.8438 118.594 27.8438H75.2812V42.2812Z" fill="#3D6182"/>
  <path d="M74.25 26.8125H29.9062C27.0579 26.8125 24.75 29.1204 24.75 31.9688V43.3125H74.25V26.8125Z" fill="#E8A400"/>
  <path d="M74.25 44.3438H24.75C24.1808 44.3438 23.7188 43.8818 23.7188 43.3125V31.9688C23.7188 28.5574 26.4949 25.7812 29.9062 25.7812H74.25C74.8192 25.7812 75.2812 26.2433 75.2812 26.8125V43.3125C75.2812 43.8818 74.8192 44.3438 74.25 44.3438ZM25.7812 42.2812H73.2188V27.8438H29.9062C27.6313 27.8438 25.7812 29.6938 25.7812 31.9688V42.2812Z" fill="#3D6182"/>
  <path d="M74.25 110.344C73.6808 110.344 73.2188 109.882 73.2188 109.312V43.3125C73.2188 42.7433 73.6808 42.2812 74.25 42.2812C74.8192 42.2812 75.2812 42.7433 75.2812 43.3125V109.312C75.2812 109.882 74.8192 110.344 74.25 110.344Z" fill="#3D6182"/>
  <path d="M123.75 60.8438H24.75C24.1808 60.8438 23.7188 60.3817 23.7188 59.8125C23.7188 59.2433 24.1808 58.7812 24.75 58.7812H123.75C124.319 58.7812 124.781 59.2433 124.781 59.8125C124.781 60.3817 124.319 60.8438 123.75 60.8438Z" fill="#3D6182"/>
  <path d="M123.75 77.3438H24.75C24.1808 77.3438 23.7188 76.8817 23.7188 76.3125C23.7188 75.7433 24.1808 75.2812 24.75 75.2812H123.75C124.319 75.2812 124.781 75.7433 124.781 76.3125C124.781 76.8817 124.319 77.3438 123.75 77.3438Z" fill="#3D6182"/>
  <path d="M123.75 93.8438H24.75C24.1808 93.8438 23.7188 93.3817 23.7188 92.8125C23.7188 92.2433 24.1808 91.7812 24.75 91.7812H123.75C124.319 91.7812 124.781 92.2433 124.781 92.8125C124.781 93.3817 124.319 93.8438 123.75 93.8438Z" fill="#3D6182"/>
  <path d="M99.4688 124.938C108.012 124.938 114.938 118.012 114.938 109.469C114.938 100.926 108.012 94 99.4688 94C90.9256 94 84 100.926 84 109.469C84 118.012 90.9256 124.938 99.4688 124.938Z" fill="#7FB800"/>
  <path d="M103.8 111.2H94.2C93.5376 111.2 93 110.662 93 110C93 109.338 93.5376 108.8 94.2 108.8H103.8C104.462 108.8 105 109.338 105 110C105 110.662 104.462 111.2 103.8 111.2Z" fill="#092946"/>
  <path d="M99 116C98.3376 116 97.8 115.462 97.8 114.8V105.2C97.8 104.538 98.3376 104 99 104C99.6624 104 100.2 104.538 100.2 105.2V114.8C100.2 115.462 99.6624 116 99 116Z" fill="#092946"/>
  <path d="M35.0625 12.375H26.8125C26.2433 12.375 25.7812 11.913 25.7812 11.3438C25.7812 10.7745 26.2433 10.3125 26.8125 10.3125H35.0625C35.6318 10.3125 36.0938 10.7745 36.0938 11.3438C36.0938 11.913 35.6318 12.375 35.0625 12.375Z" fill="#3D6182"/>
  <path d="M30.9375 16.5C30.3683 16.5 29.9062 16.038 29.9062 15.4688V7.21875C29.9062 6.6495 30.3683 6.1875 30.9375 6.1875C31.5067 6.1875 31.9688 6.6495 31.9688 7.21875V15.4688C31.9688 16.038 31.5067 16.5 30.9375 16.5Z" fill="#3D6182"/>
  <path d="M16.5 28.875H8.25C7.68075 28.875 7.21875 28.413 7.21875 27.8438C7.21875 27.2745 7.68075 26.8125 8.25 26.8125H16.5C17.0693 26.8125 17.5312 27.2745 17.5312 27.8438C17.5312 28.413 17.0693 28.875 16.5 28.875Z" fill="#3D6182"/>
  <path d="M12.375 33C11.8058 33 11.3438 32.538 11.3438 31.9688V23.7188C11.3438 23.1495 11.8058 22.6875 12.375 22.6875C12.9442 22.6875 13.4062 23.1495 13.4062 23.7188V31.9688C13.4062 32.538 12.9442 33 12.375 33Z" fill="#3D6182"/>
  <path d="M30.9375 120.656H28.875C28.3058 120.656 27.8438 120.194 27.8438 119.625C27.8438 119.056 28.3058 118.594 28.875 118.594H30.9375C31.5067 118.594 31.9688 119.056 31.9688 119.625C31.9688 120.194 31.5067 120.656 30.9375 120.656Z" fill="#3D6182"/>
  <path d="M68.0625 120.656H35.0625C34.4933 120.656 34.0312 120.194 34.0312 119.625C34.0312 119.056 34.4933 118.594 35.0625 118.594H68.0625C68.6317 118.594 69.0938 119.056 69.0938 119.625C69.0938 120.194 68.6317 120.656 68.0625 120.656Z" fill="#3D6182"/>
  <path d="M119.625 17.5312H117.562C116.993 17.5312 116.531 17.0692 116.531 16.5C116.531 15.9308 116.993 15.4688 117.562 15.4688H119.625C120.194 15.4688 120.656 15.9308 120.656 16.5C120.656 17.0692 120.194 17.5312 119.625 17.5312Z" fill="#3D6182"/>
  <path d="M113.438 17.5312H80.4375C79.8683 17.5312 79.4062 17.0692 79.4062 16.5C79.4062 15.9308 79.8683 15.4688 80.4375 15.4688H113.438C114.007 15.4688 114.469 15.9308 114.469 16.5C114.469 17.0692 114.007 17.5312 113.438 17.5312Z" fill="#3D6182"/>
  </svg>
  