<svg clip-rule="evenodd" fill-rule="evenodd" stroke-linejoin="round" stroke-miterlimit="2"
  height="20" width="20" fill="var(--black)" viewBox="0 0 510 510" xmlns="http://www.w3.org/2000/svg">
  <path
    d="m222.517 413.938h-188.132c-14.549 0-26.399-11.807-26.399-26.356v-195.746c0-14.488 11.85-26.357 26.399-26.357h14.531v-49.88c0-59.725 48.874-108.599 108.598-108.599 59.726 0 108.557 48.873 108.557 108.599 0 4.418-3.582 8-8 8h-46.041c-4.418 0-8-3.582-8-8 0-25.549-21.003-46.559-46.516-46.559-25.512 0-46.515 21.01-46.515 46.559v49.88h169.645c14.554 0 26.356 11.864 26.356 26.357v29.017c15.48-5.623 32.183-8.69 49.595-8.69 80.259 0 145.419 65.16 145.419 145.418 0 80.259-65.16 145.419-145.419 145.419-60.28 0-112.042-36.757-134.078-89.062zm-157.601-248.459h30.083v-49.88c0-34.333 28.231-62.559 62.515-62.559 31.58 0 58.025 23.948 62 54.559h30.212c-4.086-47.218-43.981-84.599-92.212-84.599-50.925 0-92.598 41.673-92.598 92.599zm226.084 62.305v-35.948c0-5.695-4.637-10.357-10.356-10.357h-246.259c-5.724 0-10.399 4.657-10.399 10.357v195.746c0 5.724 4.675 10.356 10.399 10.356h182.474c-3.7-12.815-5.682-26.356-5.682-40.357 0-56.665 32.48-105.803 79.823-129.797zm65.595.379c-71.428 0-129.418 57.99-129.418 129.418s57.99 129.419 129.418 129.419 129.419-57.991 129.419-129.419-57.991-129.418-129.419-129.418zm30.724 126.76c31.986 11.528 55.609 40.546 59.345 75.508.241 2.257-.488 4.51-2.005 6.198s-3.68 2.652-5.95 2.652h-164.228c-2.27 0-4.434-.964-5.951-2.653s-2.245-3.943-2.003-6.201c3.755-34.963 27.384-63.979 59.361-75.506-11.578-9.126-19.033-23.272-19.033-39.102 0-27.401 22.339-49.761 49.74-49.761 27.427 0 49.762 22.361 49.762 49.761 0 15.83-7.454 29.978-19.038 39.104zm-30.724 10.658c-35.377 0-65.004 24.641-72.665 57.7h145.335c-7.643-33.06-37.274-57.7-72.67-57.7zm0-16c18.609 0 33.762-15.171 33.762-33.762 0-18.59-15.153-33.761-33.762-33.761-18.589 0-33.74 15.172-33.74 33.761 0 18.59 15.151 33.762 33.74 33.762zm-199.081-137.721c24.179 0 43.777 19.64 43.777 43.819 0 14.127-6.638 26.667-16.994 34.674v50.422c0 14.758-12.086 26.782-26.783 26.782-14.757 0-26.782-12.024-26.782-26.782v-50.421c-10.363-8.007-17.036-20.549-17.036-34.675 0-24.176 19.643-43.819 43.818-43.819zm0 16c-15.348 0-27.818 12.471-27.818 27.819 0 10.024 5.295 18.789 13.235 23.685 2.363 1.457 3.801 4.034 3.801 6.81v54.601c0 5.941 4.841 10.782 10.782 10.782 5.917 0 10.783-4.841 10.783-10.782v-54.601c0-2.776 1.438-5.353 3.801-6.81 7.938-4.895 13.193-13.663 13.193-23.685 0-15.346-12.431-27.819-27.777-27.819z" />
</svg>
