<!-- Created with Inkscape (http://www.inkscape.org/) -->

<svg
  width="150"
  height="60"
  viewBox="0 0 83.729248 19.250397"
  version="1.1"
  id="svg251"
>
  <defs
    id="defs248" />
  <g
    id="layer1"
    transform="translate(-58.655172,-151.20646)">
    <g
      id="g1278-9-8"
      transform="translate(-0.39466412,48.921688)"
      style="fill:#ffffff;stroke:#ffffff"
    >
      <path
        d="m 64.003361,121.08771 -4.774903,-13.09688 h 4.464844 l 1.897559,6.02754 q 0.384472,1.25264 0.731738,2.49287 0.347266,1.24024 0.682129,2.49287 h -1.016992 q 0.334863,-1.25263 0.669726,-2.49287 0.334864,-1.24023 0.694531,-2.49287 l 1.860352,-6.02754 h 4.415235 l -4.774904,13.09688 z"
        style="font-weight:800;font-size:96px;line-height:0;font-family:Inter;-inkscape-font-specification:'Inter Ultra-Bold';text-align:start;text-anchor:start;white-space:pre;fill:#ffffff;stroke:#ffffff;stroke-width:0.25"
        id="path1094-7-7-7-9" />
      <path
        d="m 74.5137,121.08771 v -13.09688 h 4.26641 v 13.09688 z m 2.1208,-14.37432 q -1.0294,0 -1.68672,-0.60771 -0.65732,-0.60772 -0.65732,-1.5503 0,-0.94258 0.65732,-1.53789 0.65732,-0.60771 1.68672,-0.60771 1.02939,0 1.68672,0.60771 0.66973,0.59531 0.66973,1.53789 0,0.94258 -0.66973,1.5503 -0.65733,0.60771 -1.68672,0.60771 z"
        style="font-weight:800;font-size:96px;line-height:0;font-family:Inter;-inkscape-font-specification:'Inter Ultra-Bold';text-align:start;text-anchor:start;white-space:pre;fill:#ffffff;stroke:#ffffff;stroke-width:0.25"
        id="path1096-1-6-3-3" />
      <path
        d="m 85.964209,121.41017 q -1.81074,0 -3.21221,-0.54571 -1.40146,-0.5457 -2.23242,-1.56269 -0.83096,-1.01699 -0.95498,-2.40606 h 4.20439 q 0.0992,0.71934 0.64493,1.15342 0.5581,0.42168 1.48828,0.42168 0.88056,0 1.37666,-0.31006 0.49609,-0.31005 0.49609,-0.80615 0,-0.43408 -0.40928,-0.69453 -0.39687,-0.27285 -1.17822,-0.40928 l -2.36885,-0.42168 q -1.93476,-0.34726 -2.95175,-1.32705 -1.0046,-0.97978 -1.0046,-2.53008 0,-1.28984 0.69453,-2.24482 0.70694,-0.95498 2.02159,-1.47588 1.32705,-0.5333 3.15019,-0.5333 1.83555,0 3.175,0.55811 1.33946,0.5457 2.0836,1.56269 0.75654,1.00459 0.79375,2.40606 h -3.93155 q -0.0124,-0.69454 -0.5705,-1.14102 -0.54571,-0.45889 -1.40147,-0.45889 -0.83096,0 -1.30225,0.32246 -0.45888,0.32247 -0.45888,0.80616 0,0.40927 0.37207,0.68213 0.37207,0.27285 1.0418,0.39687 l 2.62929,0.48369 q 2.03399,0.37207 2.98897,1.24024 0.96738,0.86816 0.96738,2.33164 0,1.33945 -0.78135,2.35644 -0.76894,1.017 -2.158,1.5875 -1.37667,0.55811 -3.21221,0.55811 z"
        style="font-weight:800;font-size:96px;line-height:0;font-family:Inter;-inkscape-font-specification:'Inter Ultra-Bold';text-align:start;text-anchor:start;white-space:pre;fill:#ffffff;stroke:#ffffff;stroke-width:0.25"
        id="path1098-3-8-1-7" />
      <path
        d="m 92.846644,121.08771 v -13.09688 h 4.266407 v 13.09688 z m 2.1208,-14.37432 q -1.02939,0 -1.68672,-0.60771 -0.65732,-0.60772 -0.65732,-1.5503 0,-0.94258 0.65732,-1.53789 0.65733,-0.60771 1.68672,-0.60771 1.0294,0 1.68672,0.60771 0.669724,0.59531 0.669724,1.53789 0,0.94258 -0.669724,1.5503 -0.65732,0.60771 -1.68672,0.60771 z"
        style="font-weight:800;font-size:96px;line-height:0;font-family:Inter;-inkscape-font-specification:'Inter Ultra-Bold';text-align:start;text-anchor:start;white-space:pre;fill:#ffffff;stroke:#ffffff;stroke-width:0.25"
        id="path1100-8-6-0-4" />
      <path
        d="m 107.08163,107.99083 v 3.29902 h -9.202538 v -3.29902 z m -6.97012,-3.57187 h 4.27881 v 12.26591 q 0,0.63252 0.24804,0.86817 0.24805,0.23564 0.96739,0.23564 0.32246,0 0.79375,0 0.47129,0 0.68213,0 v 3.29903 q -0.33487,0 -1.017,0 -0.68212,0 -1.40146,0 -2.35645,0 -3.46026,-0.88057 -1.0914,-0.89297 -1.0914,-2.80293 z"
        style="font-weight:800;font-size:96px;line-height:0;font-family:Inter;-inkscape-font-specification:'Inter Ultra-Bold';text-align:start;text-anchor:start;white-space:pre;fill:#ffffff;stroke:#ffffff;stroke-width:0.25"
        id="path1102-4-7-2-8" />
      <path
        d="m 107.85698,121.08771 v -13.09688 h 4.12998 v 2.30684 h 0.0372 q 0.35967,-1.25264 1.11621,-1.79834 0.76894,-0.55811 2.08359,-0.55811 0.34727,0 0.62012,0.0124 0.28525,0 0.5457,0.0124 v 3.52227 q -0.23564,-0.0124 -0.73174,-0.0248 -0.48369,-0.0124 -0.95498,-0.0124 -0.75654,0 -1.33945,0.34726 -0.58291,0.33487 -0.91777,0.99219 -0.32247,0.65733 -0.32247,1.5875 v 6.70967 z"
        style="font-weight:800;font-size:96px;line-height:0;font-family:Inter;-inkscape-font-specification:'Inter Ultra-Bold';text-align:start;text-anchor:start;white-space:pre;fill:#ffffff;stroke:#ffffff;stroke-width:0.25"
        id="path1104-8-1-3-0" />
      <path
        d="m 120.8683,121.31095 q -1.31465,0 -2.33164,-0.42168 -1.00459,-0.43408 -1.5875,-1.28985 -0.57051,-0.86816 -0.57051,-2.1704 0,-1.10381 0.39688,-1.84796 0.39687,-0.75654 1.0914,-1.22782 0.70694,-0.47129 1.62471,-0.70694 0.93017,-0.24805 1.97197,-0.33486 1.16582,-0.0992 1.87276,-0.21084 0.70693,-0.12403 1.01699,-0.33486 0.31006,-0.22325 0.31006,-0.62012 v -0.062 q 0,-0.39688 -0.22325,-0.68213 -0.22324,-0.29766 -0.63251,-0.45889 -0.40928,-0.17363 -0.96739,-0.17363 -0.59531,0 -1.02939,0.18603 -0.43408,0.17363 -0.68213,0.5085 -0.24805,0.32246 -0.29766,0.76894 h -3.96875 q 0.0992,-1.42627 0.83096,-2.43085 0.73174,-1.017 2.05879,-1.5503 1.33945,-0.5457 3.23701,-0.5457 1.42627,0 2.51768,0.31006 1.10381,0.29765 1.86035,0.89297 0.75654,0.58291 1.14101,1.43867 0.38448,0.84336 0.38448,1.92236 v 8.81807 h -4.16719 v -1.83555 h -0.0496 q -0.39688,0.70693 -0.93018,1.16582 -0.5333,0.44648 -1.24023,0.66973 -0.70693,0.22324 -1.63711,0.22324 z m 1.30225,-2.79053 q 0.70693,0 1.27744,-0.27285 0.58291,-0.27285 0.91777,-0.74414 0.33486,-0.48369 0.33486,-1.12861 v -1.19063 q -0.17363,0.0744 -0.40927,0.14883 -0.23565,0.0744 -0.5333,0.13643 -0.28526,0.062 -0.63252,0.12402 -0.34727,0.062 -0.74415,0.13642 -0.5705,0.0868 -1.01699,0.27286 -0.43408,0.18603 -0.69453,0.49609 -0.24805,0.29766 -0.24805,0.73174 0,0.40927 0.22325,0.69453 0.22324,0.28525 0.60771,0.44648 0.39688,0.14883 0.91778,0.14883 z"
        style="font-weight:800;font-size:96px;line-height:0;font-family:Inter;-inkscape-font-specification:'Inter Ultra-Bold';text-align:start;text-anchor:start;white-space:pre;fill:#ffffff;stroke:#ffffff;stroke-width:0.25"
        id="path1106-0-8-7-4" />
      <path
        d="m 134.03444,113.96876 v 7.11895 h -4.2664 v -13.09688 h 4.21679 v 3.50986 h -0.63252 q 0.60772,-1.73632 1.76113,-2.76572 1.15342,-1.02939 3.03858,-1.02939 1.42627,0 2.43086,0.62011 1.00459,0.60772 1.53789,1.76114 0.5333,1.15342 0.5333,2.76572 v 8.23516 h -4.26641 v -7.34219 q 0,-1.16582 -0.5581,-1.77354 -0.55811,-0.62011 -1.5751,-0.62011 -0.66973,0 -1.17822,0.28525 -0.49609,0.28525 -0.76895,0.86816 -0.27285,0.57051 -0.27285,1.46348 z"
        style="font-weight:800;font-size:96px;line-height:0;font-family:Inter;-inkscape-font-specification:'Inter Ultra-Bold';text-align:start;text-anchor:start;white-space:pre;fill:#ffffff;stroke:#ffffff;stroke-width:0.25"
        id="path1108-4-4-1-0" />
    </g>
  </g>
</svg>
