<svg width="48" height="48" viewBox="0 0 48 48" fill="none" xmlns="http://www.w3.org/2000/svg">
<path d="M14.85 40C14.5833 40 14.3333 39.9333 14.1 39.8C13.8666 39.6667 13.6833 39.4833 13.55 39.25L9.34995 31.75H12.9L15 35.75H19.5V34.25H15.9L13.8 30.25H8.54995L5.39995 24.75C5.33328 24.6167 5.28328 24.4917 5.24995 24.375C5.21662 24.2583 5.19995 24.1333 5.19995 24C5.19995 23.9333 5.26662 23.6833 5.39995 23.25L8.54995 17.75H13.8L15.9 13.75H19.5V12.25H15L12.9 16.25H9.34995L13.55 8.75C13.6833 8.51667 13.8666 8.33333 14.1 8.2C14.3333 8.06667 14.5833 8 14.85 8H20.75C21.1833 8 21.5416 8.14167 21.825 8.425C22.1083 8.70833 22.25 9.06667 22.25 9.5V18.25H18L16.5 19.75H22.25V26.25H17.35L15.4 22.25H10.5L8.99995 23.75H14.4L16.4 27.75H22.25V38.5C22.25 38.9333 22.1083 39.2917 21.825 39.575C21.5416 39.8583 21.1833 40 20.75 40H14.85ZM28.5 40C27.5333 40 26.7083 39.6583 26.025 38.975C25.3416 38.2917 25 37.4667 25 36.5C25 35.8 25.1833 35.1667 25.55 34.6C25.9166 34.0333 26.4 33.6167 27 33.35V14.65C26.4 14.3833 25.9166 13.9667 25.55 13.4C25.1833 12.8333 25 12.2 25 11.5C25 10.5333 25.3416 9.70833 26.025 9.025C26.7083 8.34167 27.5333 8 28.5 8C29.4666 8 30.2916 8.34167 30.975 9.025C31.6583 9.70833 32 10.5333 32 11.5C32 12.2 31.8166 12.8333 31.45 13.4C31.0833 13.9667 30.6 14.3833 30 14.65V20.35L35 17.35C34.9 16.3167 35.2 15.4167 35.9 14.65C36.6 13.8833 37.4666 13.5 38.5 13.5C39.4666 13.5 40.2916 13.8417 40.975 14.525C41.6583 15.2083 42 16.0333 42 17C42 17.9667 41.6583 18.7917 40.975 19.475C40.2916 20.1583 39.4666 20.5 38.5 20.5C38.1333 20.5 37.7833 20.45 37.45 20.35C37.1166 20.25 36.8166 20.1167 36.55 19.95L31.15 23.2L36.95 27.85C37.1833 27.75 37.4333 27.6667 37.7 27.6C37.9666 27.5333 38.2333 27.5 38.5 27.5C39.4666 27.5 40.2916 27.8417 40.975 28.525C41.6583 29.2083 42 30.0333 42 31C42 31.9667 41.6583 32.7917 40.975 33.475C40.2916 34.1583 39.4666 34.5 38.5 34.5C37.3333 34.5 36.4083 34.05 35.725 33.15C35.0416 32.25 34.8333 31.2667 35.1 30.2L30 26.1V33.4C30.5666 33.6667 31.0333 34.075 31.4 34.625C31.7666 35.175 31.95 35.8 31.95 36.5C31.95 37.4667 31.6166 38.2917 30.95 38.975C30.2833 39.6583 29.4666 40 28.5 40Z" fill="white"/>
</svg>
