<svg enable-background="new 0 0 20 20" height="40px"
  viewBox="0 0 20 20" width="50px" fill="#0074D9"
  xmlns="http://www.w3.org/2000/svg">
  <path
    d="M16.0002 17.0479C17.3982 17.0479 18.5899 16.5557 19.5752 15.5714C20.5606 14.5869 21.0532 13.3963 21.0532 11.9996C21.0532 10.6029 20.5606 9.41168 19.5752 8.42585C18.5899 7.43985 17.3982 6.94685 16.0002 6.94685C15.4384 6.94685 14.9038 7.03585 14.3965 7.21385C13.8893 7.39169 13.4322 7.63843 13.0252 7.9541C13.4732 8.50327 13.8231 9.12327 14.0747 9.8141C14.3264 10.5049 14.4522 11.2329 14.4522 11.9981C14.4522 12.7634 14.3264 13.492 14.0747 14.1839C13.8231 14.8759 13.4732 15.4964 13.0252 16.0456C13.4322 16.3613 13.8893 16.6073 14.3965 16.7836C14.9038 16.9598 15.4384 17.0479 16.0002 17.0479ZM12.0005 15.0806C12.3306 14.6556 12.5886 14.1812 12.7745 13.6574C12.9603 13.1335 13.0532 12.581 13.0532 11.9999C13.0532 11.4187 12.9603 10.8662 12.7745 10.3424C12.5886 9.81852 12.3306 9.3441 12.0005 8.9191C11.6701 9.3441 11.4128 9.81852 11.2285 10.3424C11.0443 10.8662 10.9522 11.4187 10.9522 11.9999C10.9522 12.581 11.0443 13.1335 11.2285 13.6574C11.4128 14.1812 11.6701 14.6556 12.0005 15.0806ZM8.00022 17.0479C8.56206 17.0479 9.09664 16.9598 9.60397 16.7836C10.1111 16.6073 10.5682 16.3613 10.9752 16.0456C10.5272 15.4964 10.1782 14.8764 9.92822 14.1856C9.67822 13.4948 9.55322 12.7668 9.55322 12.0016C9.55322 11.2363 9.67822 10.5077 9.92822 9.81585C10.1782 9.12385 10.5272 8.50327 10.9752 7.9541C10.5682 7.63843 10.1111 7.39169 9.60397 7.21385C9.09664 7.03585 8.56206 6.94685 8.00022 6.94685C6.60356 6.94685 5.41306 7.43944 4.42872 8.4246C3.44439 9.4096 2.95222 10.6009 2.95222 11.9986C2.95222 13.3963 3.44439 14.5873 4.42872 15.5716C5.41306 16.5558 6.60356 17.0479 8.00022 17.0479ZM8.00022 18.4469C6.20606 18.4469 4.68297 17.8208 3.43097 16.5686C2.17914 15.3164 1.55322 13.7931 1.55322 11.9986C1.55322 10.2039 2.17906 8.68018 3.43072 7.42735C4.68239 6.17435 6.20514 5.54785 7.99897 5.54785C8.76264 5.54785 9.48356 5.67277 10.1617 5.9226C10.8399 6.17227 11.4527 6.51952 12.0002 6.96435C12.5477 6.51952 13.1606 6.17227 13.8387 5.9226C14.5169 5.67277 15.2374 5.54785 16.0002 5.54785C17.7957 5.54785 19.3199 6.17427 20.5727 7.4271C21.8257 8.67994 22.4522 10.2042 22.4522 11.9999C22.4522 13.7954 21.826 15.3188 20.5735 16.5701C19.321 17.8213 17.7972 18.4469 16.0022 18.4469C15.2381 18.4469 14.5169 18.3229 13.8387 18.0749C13.1606 17.8267 12.5477 17.4802 12.0002 17.0354C11.4527 17.4802 10.8399 17.8267 10.1617 18.0749C9.48356 18.3229 8.76306 18.4469 8.00022 18.4469Z"
    fill="#0074D9" />
</svg>